<svg viewBox="0 0 45.046 17.091" xmlns="http://www.w3.org/2000/svg"><path d="m9.436 2.742a3.857 3.857 0 0 0 .88-2.742 3.769 3.769 0 0 0 -2.51 1.311 3.622 3.622 0 0 0 -.9 2.631 3.138 3.138 0 0 0 2.53-1.2m.82 1.381c-1.4-.081-2.58.8-3.25.8s-1.69-.756-2.79-.736a4.117 4.117 0 0 0 -3.5 2.147c-1.5 2.6-.4 6.473 1.06 8.59.71 1.006 1.56 2.205 2.69 2.166s1.48-.7 2.77-.7 1.67.7 2.79.675 1.9-1.008 2.6-2.1a9.317 9.317 0 0 0 1.17-2.42 3.814 3.814 0 0 1 -2.27-3.468 3.9 3.9 0 0 1 1.83-3.256 3.991 3.991 0 0 0 -3.1-1.7m8.93-2.016v2.855h2.28v1.885h-2.28v6.755c0 1.008.45 1.522 1.45 1.522a7.482 7.482 0 0 0 .82-.06v1.9a7.823 7.823 0 0 1 -1.35.1c-2.36 0-3.27-.917-3.27-3.216v-6.956h-1.79v-1.89h1.74v-2.893zm10.25 14.853h-2.5l-4.2-11.958h2.49l2.95 9.608h.06l2.95-9.608h2.44zm10.98 0h-2.16v-4.9h-4.64v-2.158h4.63v-4.9h2.16v4.9h4.64v2.158h-4.63z" fill="#fff"/></svg>