<svg fill="none" height="92" viewBox="0 0 531 92" width="531" xmlns="http://www.w3.org/2000/svg" xmlns:xlink="http://www.w3.org/1999/xlink"><radialGradient id="a" cx="0" cy="0" gradientTransform="matrix(-139.41 0 0 -139.41 396.99 59.694)" gradientUnits="userSpaceOnUse" r="1"><stop offset="0" stop-color="#64c8d7"/><stop offset=".28" stop-color="#60c4d6"/><stop offset=".57" stop-color="#53b9d2"/><stop offset=".86" stop-color="#3fa7cc"/><stop offset="1" stop-color="#329bc8"/></radialGradient><linearGradient id="b"><stop offset="0" stop-color="#ff503c"/><stop offset=".46" stop-color="#ff5447"/><stop offset="1" stop-color="#ff5a5a"/></linearGradient><radialGradient id="c" cx="396.999" cy="59.705" gradientUnits="userSpaceOnUse" r="47.42" xlink:href="#b"/><radialGradient id="d" cx="0" cy="0" gradientTransform="matrix(-100.12 0 0 -100.12 396.99 59.694)" gradientUnits="userSpaceOnUse" r="1"><stop offset=".6" stop-color="#ffaa46"/><stop offset=".75" stop-color="#fdab48"/><stop offset=".81" stop-color="#f6b04f"/><stop offset=".86" stop-color="#e9b85b"/><stop offset=".9" stop-color="#d8c36c"/><stop offset=".93" stop-color="#c1d182"/><stop offset=".96" stop-color="#a4e39d"/><stop offset=".99" stop-color="#83f8bd"/><stop offset="1" stop-color="#78ffc8"/></radialGradient><radialGradient id="e" cx="0" cy="0" gradientTransform="matrix(1260.46 0 0 2540.29 12731.4 6776.53)" gradientUnits="userSpaceOnUse" r="1" xlink:href="#b"/><path clip-rule="evenodd" d="m43.25 14.3741c1.646.015 3.284.227 4.88.63l2.5-13.88005c-3.147-.793747-6.3848-1.1699762-9.63-1.11899712-8.25 0-14.61 2.98999712-18.87 7.11999712-4.26 4.13005-6.51 10.00005-6.51 19.76005v2.5h-15.62v13.75h15.62v46.88h16.26v-46.88h18.75v-13.75h-18.75v-1.88c0-5.63.87-7.88 2.25-9.63 2-2.37 5.12-3.5 9.12-3.5zm117.4 75.64h-15.62v-4.87c-4.693 4.0285-10.696 6.2048-16.88 6.12-4.322.0112-8.598-.8969-12.543-2.664-3.944-1.7672-7.468-4.3531-10.337-7.586-5.044-5.9313-7.7934-13.4744-7.75-21.26 0-17.88 13.25-31.63 29.75-31.63 6.45-.0792 12.728 2.084 17.76 6.12v-4.86h15.62zm-16.25-39.38c-1.741-2.3343-4.005-4.2284-6.61-5.5308-2.604-1.3023-5.478-1.9767-8.39-1.9692-9.5 0-15.63 7.88-15.63 16.63 0 9.5 6.88 16.5 16 16.5 2.863.0222 5.688-.6483 8.236-1.9542 2.547-1.306 4.741-3.2087 6.394-5.5458zm29.469-21.25v60.63h16.26v-39.38c1.752-2.2621 3.983-4.1079 6.534-5.4047 2.55-1.2969 5.356-2.0124 8.216-2.0953 3.37-.1221 6.652 1.0928 9.13 3.38 2.25 2.25 3.62 5.37 3.62 11.37v32.13h16.26v-30.88c0-10.37-2.26-16.5-6.26-21.25-2.572-3.0642-5.787-5.5258-9.416-7.2106-3.628-1.6848-7.583-2.5517-11.584-2.5394-6.249-.0229-12.31 2.1423-17.13 6.12v-4.87zm164.83 61.88c9.38 0 19-3.87 24.88-10.87l-9.2-9.26c-2.88 3.12-8.38 7-15.25 7-8.63 0-15.51-5.88-16.38-14.38h42c.244-1.5276.354-3.0734.33-4.62 0-16.88-11.88-31-28.63-31-18 0-29.51 14.75-29.51 31.63 0 19 13.63 31.5 31.76 31.5zm5.766-46.97c2.21 1.9584 3.628 4.6583 3.984 7.59h-25c.75-5.5 6.25-10.63 13-10.63 2.954 0 5.805 1.082 8.016 3.04zm-68.744 46.97c11.37 0 20.38-4.12 27.5-13.62l-12.5-9.39c-1.587 2.4095-3.736 4.3968-6.262 5.7905s-5.353 2.152-8.238 2.2095c-9.88 0-16.76-7-16.76-16.5-.072-3.2767.848-6.4987 2.639-9.2436 1.791-2.745 4.369-4.8849 7.397-6.1394 2.011-.8324 4.168-1.2527 6.344-1.236 2.737.0333 5.429.7062 7.86 1.965 2.43 1.2589 4.533 3.0687 6.14 5.285l11.51-10.13c-3.06-3.8166-6.945-6.89-11.363-8.9892-4.419-2.0992-9.255-3.1697-14.147-3.1308-18.5 0-32.63 14.13-32.63 31.63s13.75 31.5 32.51 31.5zm-180.7-47.51c-1.925-.4599-3.9014-.6683-5.88-.62-7.13 0-12.75 5.13-14.75 8.75v38.13h-16.261v-60.63h15.62v6.12c3.63-4.5 10.26-7.37 17.63-7.37 1.8441.0129 3.6838.1802 5.5.5l-1.86 15.12z" fill="#fff" fill-rule="evenodd"/><path d="m530.41 29.384h-16.88l-16.63 37-16.63-37h-30.52v-16.88h-16.29v16.88h-15.62v13.75h15.62v21.25c0 8.63 1.38 14 4.5 18.13 4.13 5.5 11.26 8.75 21 8.75 3.416.017 6.82-.403 10.13-1.25l-2.5-13.75c-2.188.3953-4.406.6061-6.63.63-4 0-6.63-1.13-8.25-3-1.38-1.63-2-3.88-2-7.63v-23.13h20l21.56 46.88h11.25z" fill="url(#a)"/><path d="m396.999 76.264c9.146 0 16.56-7.414 16.56-16.56 0-9.145-7.414-16.56-16.56-16.56-9.145 0-16.56 7.415-16.56 16.56 0 9.146 7.415 16.56 16.56 16.56z" fill="url(#c)"/><path d="m480.27 29.384h-30.52v-16.88h-16.29v16.88h-15.62v13.75h15.62v21.25c0 8.63 1.38 14 4.5 18.13 4.13 5.5 11.26 8.75 21 8.75 3.416.017 6.82-.403 10.13-1.25l-2.5-13.75c-2.188.3953-4.406.6061-6.63.63-4 0-6.63-1.13-8.25-3-1.38-1.63-2-3.88-2-7.63v-23.13h20l21.56 46.88h1.16c2.436-7.6705 3.93-15.6088 4.45-23.64z" fill="url(#d)"/><path d="m433.46 29.384h-15.62v13.75h15.62v21.25c0 8.63 1.38 14 4.5 18.13l.36.44c4.715-8.3695 6.775-17.9743 5.907-27.5414-.868-9.567-4.623-18.6443-10.767-26.0286z" fill="url(#e)"/></svg>