<?xml version="1.0" encoding="UTF-8" standalone="no" ?>
<!DOCTYPE svg PUBLIC "-//W3C//DTD SVG 1.1//EN" "http://www.w3.org/Graphics/SVG/1.1/DTD/svg11.dtd">
<svg xmlns="http://www.w3.org/2000/svg" xmlns:xlink="http://www.w3.org/1999/xlink" version="1.1" width="480.1355723323153" height="480.1355723323153" viewBox="9.502354414642355 9.424658224742359 480.1355723323153 480.1355723323153" xml:space="preserve">
<desc>Created with Fabric.js 5.3.0</desc>
<defs>
</defs>
<g transform="matrix(6.8179246635 0 0 6.8179246635 249.5701405808 249.4924443909)" id="9nPnYGhhXrD4_0i_aKIf5"  >
<path style="stroke: rgb(217,254,230); stroke-width: 0; stroke-dasharray: none; stroke-linecap: butt; stroke-dashoffset: 0; stroke-linejoin: miter; stroke-miterlimit: 4; fill: rgb(255,102,0); fill-rule: nonzero; opacity: 1;" vector-effect="non-scaling-stroke"  transform=" translate(0, 0)" d="M -35.21127 -35.21127 L 35.21127 -35.21127 L 35.21127 35.21127 L -35.21127 35.21127 z" stroke-linecap="round" />
</g>
<g transform="matrix(1.5640581154 0 0 1.5640581154 249.3172887535 431.6833312991)" id="ZsX7y2YgefqIvbJYdJY61"  >
<g style="" vector-effect="non-scaling-stroke"   >
		<g transform="matrix(1.9490528769 0 0 1.9490527398 75.5164887764 -8.1529500292)" id="Xc0O7q1HXLX23PgEZPpVM"  >
<path style="stroke: none; stroke-width: 1; stroke-dasharray: none; stroke-linecap: butt; stroke-dashoffset: 0; stroke-linejoin: miter; stroke-miterlimit: 4; fill: rgb(255,102,0); fill-rule: nonzero; opacity: 1;" vector-effect="non-scaling-stroke"  transform=" translate(-101.1406308124, -100.0173823904)" d="M 98.67 99.24 C 99.23572085078271 98.63134149422305 100.01964014921346 98.27174548576858 100.85000000000001 98.24 C 101.91286404137723 98.11118272254323 102.9756782637641 98.48021543864978 103.73 99.24 C 104.30919374362304 99.97316381303234 104.61345670707902 100.88595270340028 104.59 101.82 L 97.69 101.82 C 97.72778639326029 100.86984485859394 98.0794584760039 99.95901416428798 98.69 99.22999999999999 Z" stroke-linecap="round" />
</g>
		<g transform="matrix(1.9490528769 0 0 1.9490527398 39.3952128164 -2.0174297205)" id="3_JUx-IYlNafyir1iuc2k"  >
<path style="stroke: none; stroke-width: 1; stroke-dasharray: none; stroke-linecap: butt; stroke-dashoffset: 0; stroke-linejoin: miter; stroke-miterlimit: 4; fill: rgb(255,102,0); fill-rule: nonzero; opacity: 1;" vector-effect="non-scaling-stroke"  transform=" translate(-82.607898126, -103.6784020041)" d="M 81.84 98.43 C 82.93247089977272 98.22114652159277 84.05722900310914 98.56982153362706 84.84 99.36000000000001 C 85.67356382018913 100.30623123667074 86.14169194247327 101.51910864440696 86.16 102.78000000000002 C 86.20469452474751 103.68609266355149 86.1544205967283 104.59437496309849 86.00999999999999 105.49000000000001 C 85.89739756433099 106.45274267623651 85.49655124775057 107.35900391372266 84.85999999999999 108.09 C 84.21600866340721 108.69692148092591 83.35410607610335 109.01788102180475 82.46999999999998 108.98 C 81.64325947898872 109.03479043748257 80.83338896991326 108.72835294756213 80.24999999999999 108.14 C 79.56698822595344 107.31168979518696 79.17365632987921 106.28270545992136 79.12999999999998 105.21 C 79.01001301158762 104.1500515124476 79.01001301158762 103.07994848755239 79.12999999999998 102.02 C 79.21030279167077 101.07610168183652 79.55709701360483 100.17443670480796 80.12999999999998 99.42 C 80.56407821995033 98.90022795025587 81.16479876482357 98.54686292385983 81.82999999999998 98.42 Z" stroke-linecap="round" />
</g>
		<g transform="matrix(1.9490528769 0 0 1.9490527398 -92.1430178832 -0.1061689479)" id="XOJAxJ2pWMnnW44MdxGRG"  >
<path style="stroke: none; stroke-width: 1; stroke-dasharray: none; stroke-linecap: butt; stroke-dashoffset: 0; stroke-linejoin: miter; stroke-miterlimit: 4; fill: rgb(255,102,0); fill-rule: nonzero; opacity: 1;" vector-effect="non-scaling-stroke"  transform=" translate(-15.1196158654, -104.14594234)" d="M 14.39 99 C 15.511623534467349 98.77811912142317 16.674116634022823 99.05960329961742 17.57 99.77 C 18.3504479514636 100.49363401219426 18.855821357608477 101.46550594708825 19 102.52 C 19.170399633297443 103.67692402971998 19.13655348399702 104.85477002537468 18.9 106 C 18.742246665202536 107.03798558896048 18.21272952542174 107.98329806668995 17.41 108.66 C 16.444514880441094 109.3091336762156 15.250886384982664 109.52318863436771 14.120000000000001 109.25 C 13.203327380141845 109.05366904318473 12.411870947702937 108.4800446563712 11.940000000000001 107.67 C 11.330897707362356 106.47540240659383 11.057836873205035 105.13774996584849 11.150000000000002 103.8 C 11.132954012300274 102.59531970919619 11.45523617128555 101.41015306002451 12.08 100.38 C 12.61808530526318 99.61175151644724 13.458490798451683 99.10969109194502 14.389999999999999 99 Z" stroke-linecap="round" />
</g>
		<g transform="matrix(1.9490528769 0 0 1.9490527398 -34.0891549495 5.0962634376)" id="ce8ncAmIxoW9z2WksPYA_"  >
<path style="stroke: none; stroke-width: 1; stroke-dasharray: none; stroke-linecap: butt; stroke-dashoffset: 0; stroke-linejoin: miter; stroke-miterlimit: 4; fill: rgb(255,102,0); fill-rule: nonzero; opacity: 1;" vector-effect="non-scaling-stroke"  transform=" translate(-44.9052946536, -106.8151530182)" d="M 44 104.91 C 45.282741227862545 104.3996821327319 46.62801992023041 104.06336245963993 48 103.91 C 48 105.25 48 106.59 48 107.91 C 46.88228450390327 109.01519006605992 45.390750584419614 109.66104566277413 43.82 109.72 C 43.28315044955128 109.72962888914358 42.76729084676931 109.51166004289769 42.4 109.12 C 41.71843134922608 108.31233552823377 41.61834515002268 107.16334596137871 42.15 106.25 C 42.60841607984055 105.61790416210567 43.256486406053426 105.1484910609569 44 104.91 Z" stroke-linecap="round" />
</g>
		<g transform="matrix(1.9490528769 0 0 1.9490527398 89.9479958434 -24.0910995818)" id="gvKp79r7qkgA8YsP-Y7HX"  >
<path style="stroke: none; stroke-width: 1; stroke-dasharray: none; stroke-linecap: butt; stroke-dashoffset: 0; stroke-linejoin: miter; stroke-miterlimit: 4; fill: rgb(255,255,255); fill-rule: nonzero; opacity: 1;" vector-effect="non-scaling-stroke"  transform=" translate(-108.545, -91.84)" d="M 106.3 89 L 110.78999999999999 89 L 110.78999999999999 89.78 L 109 89.78 L 109 94.68 L 108 94.68 C 108 93.05000000000001 108 91.42 108 89.78 L 106.3 89.78 L 106.3 89 Z" stroke-linecap="round" />
</g>
		<g transform="matrix(1.9490528769 0 0 1.9490527398 102.529132164 -24.0813543181)" id="mmmlfryWMBR2fUfK0zevA"  >
<path style="stroke: none; stroke-width: 1; stroke-dasharray: none; stroke-linecap: butt; stroke-dashoffset: 0; stroke-linejoin: miter; stroke-miterlimit: 4; fill: rgb(255,255,255); fill-rule: nonzero; opacity: 1;" vector-effect="non-scaling-stroke"  transform=" translate(-115, -91.845)" d="M 111.91 89 L 113.38 89 C 113.94 90.42 114.5 91.84 115.05 93.27 C 115.6 91.85 116.14999999999999 90.42999999999999 116.69 89 L 118.14999999999999 89 C 118.14999999999999 90.9 118.14999999999999 92.79 118.14999999999999 94.69 L 117.14999999999999 94.69 C 117.14999999999999 93.13 117.14999999999999 91.58 117.14999999999999 90.02 C 116.52 91.57 115.92999999999999 93.13 115.30999999999999 94.69 L 114.68999999999998 94.69 C 114.07999999999998 93.14 113.49999999999999 91.58 112.84999999999998 90.03999999999999 C 112.84999999999998 91.58999999999999 112.84999999999998 93.13999999999999 112.84999999999998 94.69 L 111.84999999999998 94.69 L 111.84999999999998 89 Z" stroke-linecap="round" />
</g>
		<g transform="matrix(1.9490528769 0 0 1.9490527398 -92.1568103408 -0.1160803124)" id="BuUv5qoKYkhd9v8CZfmKo"  >
<path style="stroke: none; stroke-width: 1; stroke-dasharray: none; stroke-linecap: butt; stroke-dashoffset: 0; stroke-linejoin: miter; stroke-miterlimit: 4; fill: rgb(255,255,255); fill-rule: nonzero; opacity: 1;" vector-effect="non-scaling-stroke"  transform=" translate(-15.1125393731, -104.1408571187)" d="M 14.57 95.1 C 16.558683713254595 94.95408117851935 18.53852540054111 95.48250867512607 20.19 96.6 C 21.586039524110806 97.60581831598392 22.606588915481083 99.04866400723155 23.09 100.69999999999999 C 23.595744919882595 102.45351916789275 23.715156344453383 104.29586686127062 23.440000000000005 106.09999999999998 C 23.224430423179705 107.66363136670779 22.588489102665577 109.13942997464004 21.6 110.36999999999999 C 20.456630964239515 111.72451646026009 18.8879942226436 112.65159839967521 17.15 113 C 15.284991423906607 113.39491077459449 13.345159603850789 113.2349963234788 11.569999999999997 112.54 C 10.100286867551143 111.9387662357036 8.857908609612805 110.88886911631909 8.02 109.54 C 7.042899283077535 107.86236069268655 6.567436467795245 105.93968624256694 6.649999999999999 104 C 6.583243884659486 101.93952953582759 7.182938983156971 99.91248996312848 8.36 98.22 C 9.840505778434157 96.2769534093986 12.127637242708328 95.11681426085373 14.570000000000002 95.07 Z M 14.39 99 C 13.453390441743405 99.11688003307937 12.612092066372941 99.63039982064315 12.079999999999998 100.41 C 11.45523617128555 101.44015306002451 11.132954012300273 102.62531970919619 11.15 103.83 C 11.057836873205035 105.16774996584849 11.330897707362354 106.50540240659383 11.940000000000001 107.7 C 12.411870947702935 108.5100446563712 13.203327380141845 109.08366904318473 14.120000000000001 109.28 C 15.250886384982664 109.55318863436771 16.444514880441094 109.3391336762156 17.41 108.69 C 18.21906112099195 108.00583699068812 18.74918498632112 107.04876773046298 18.9 106 C 19.121130130408165 104.84859306630284 19.138054541411368 103.6672691782791 18.949999999999996 102.51 C 18.823720291074174 101.45499757737224 18.336109448439032 100.4762424801988 17.57 99.74000000000001 C 16.669227312743523 99.04015151633145 15.507211773227807 98.76974538449446 14.389999999999997 99 Z" stroke-linecap="round" />
</g>
		<g transform="matrix(1.9490528769 0 0 1.9490527398 -60.3337262329 -0.4884326173)" id="Z8agY24sHLaznHZAgliFw"  >
<path style="stroke: none; stroke-width: 1; stroke-dasharray: none; stroke-linecap: butt; stroke-dashoffset: 0; stroke-linejoin: miter; stroke-miterlimit: 4; fill: rgb(255,255,255); fill-rule: nonzero; opacity: 1;" vector-effect="non-scaling-stroke"  transform=" translate(-31.44, -103.9498144151)" d="M 30.93 97.52 C 32.22937842893468 95.95175552616121 34.19667989922385 95.09430903628045 36.23 95.21 L 36.23 99.46 C 34.943443567466716 99.39447357901514 33.6578121100797 99.60590368606553 32.459999999999994 100.08 C 31.91471606887158 100.32090493508748 31.481934085973226 100.76084033919076 31.249999999999993 101.31 C 31.249999999999993 105.11 31.249999999999993 108.91 31.249999999999993 112.7 L 26.64999999999999 112.7 L 26.64999999999999 95.54 C 28.07999999999999 95.54 29.50999999999999 95.54 30.93999999999999 95.54 L 30.93999999999999 97.54 Z" stroke-linecap="round" />
</g>
		<g transform="matrix(1.9490528769 0 0 1.9490527398 -33.9103680106 -0.3020507819)" id="x8BvrU6fJ9jqmNQ6f-FIS"  >
<path style="stroke: none; stroke-width: 1; stroke-dasharray: none; stroke-linecap: butt; stroke-dashoffset: 0; stroke-linejoin: miter; stroke-miterlimit: 4; fill: rgb(255,255,255); fill-rule: nonzero; opacity: 1;" vector-effect="non-scaling-stroke"  transform=" translate(-44.997024817, -104.0454412966)" d="M 42.18 95.67 C 43.94454825172628 95.1482026436413 45.80421276422692 95.03197361161 47.62 95.33 C 49.19732931617618 95.48247886027558 50.65341268329548 96.24279825394379 51.68 97.45 C 52.36785538784677 98.42365677789209 52.677166134256815 99.61468091636758 52.55 100.8 C 52.55 104.8 52.55 108.74 52.55 112.7 L 48.55 112.7 L 48.16 111.22 C 46.98393995443618 111.99712048591338 45.65930341454907 112.52152672535456 44.269999999999996 112.76 C 42.872889624913554 113.06200703668024 41.41743310319387 112.94013866763673 40.089999999999996 112.41000000000001 C 38.941477315269765 111.88621444365405 38.071709430313646 110.8963530850429 37.699999999999996 109.69000000000001 C 37.20322627032901 108.222059905891 37.363583644788314 106.61119718973157 38.13999999999999 105.27000000000001 C 38.92464248749179 104.15109729197174 40.024730705587665 103.29121821010565 41.3 102.80000000000001 C 43.50780869958752 101.95124512194968 45.823657304381754 101.41604173799287 48.18 101.21000000000001 C 48.3081885025088 100.49149953303645 48.177064154055735 99.7508241593421 47.81 99.12 C 47.01413633427266 98.42173023969227 45.937061212248 98.13673098059982 44.900000000000006 98.35000000000001 C 43.50193138408543 98.48649763039715 42.219938901161406 99.1870794379669 41.35000000000001 100.29 C 40.35000000000001 99.71000000000001 39.30000000000001 99.13000000000001 38.290000000000006 98.53 C 39.24341900178425 97.1812341972794 40.608267190591825 96.17777254689645 42.18 95.67 Z M 44 104.91 C 43.261480631016276 105.17448081998553 42.62713687713636 105.66863810891961 42.19 106.32 C 41.658345150022676 107.2333459613787 41.75843134922608 108.38233552823375 42.44 109.19 C 42.80729084676931 109.58166004289768 43.32315044955128 109.79962888914358 43.86 109.78999999999999 C 45.434988648843806 109.7413825675111 46.93414710394081 109.10245551164833 48.06 108 C 48.06 106.66 48.06 105.32 48.06 104 C 46.68801992023041 104.15336245963994 45.34274122786255 104.4896821327319 44.06 105 Z" stroke-linecap="round" />
</g>
		<g transform="matrix(1.9490528769 0 0 1.9490527398 2.640172221 -0.5672322541)" id="VFRuPm0SxFoRVxVnhYbzc"  >
<path style="stroke: none; stroke-width: 1; stroke-dasharray: none; stroke-linecap: butt; stroke-dashoffset: 0; stroke-linejoin: miter; stroke-miterlimit: 4; fill: rgb(255,255,255); fill-rule: nonzero; opacity: 1;" vector-effect="non-scaling-stroke"  transform=" translate(-63.75, -103.9093847052)" d="M 64.58 95.31 C 66.02810123865264 94.98888148446335 67.53996603644757 95.12156245978946 68.91 95.69 C 69.89324764855351 96.17669909706488 70.6444262775559 97.03210825353649 71 98.07 C 71.2661613032267 98.84585865121902 71.40462833969069 99.65977464604399 71.41 100.47999999999999 L 71.41 112.67999999999999 L 66.92 112.67999999999999 C 66.92 108.85 66.92 105.02999999999999 66.92 101.21 C 66.98034486262384 100.42476396175407 66.7645925623982 99.64310398880545 66.31 99 C 65.75868852417757 98.52848823067838 65.0211548708356 98.33672948080947 64.31 98.48 C 62.930988234688115 98.7361718011236 61.6540671283348 99.38157214292174 60.63 100.34 L 60.63 112.64 L 56.09 112.64 C 56.09 107.08 56.09 101.52 56.09 95.96000000000001 L 59.85 95.44000000000001 C 59.97 96.11000000000001 60.120000000000005 96.78000000000002 60.25 97.44000000000001 C 61.52203391663891 96.41391456883078 62.998160512303826 95.67073766847292 64.58 95.26 Z" stroke-linecap="round" />
</g>
		<g transform="matrix(1.9490528769 0 0 1.9490527398 39.1862616679 5.9958490242)" id="02omVRteKyQngJzboJDLO"  >
<path style="stroke: none; stroke-width: 1; stroke-dasharray: none; stroke-linecap: butt; stroke-dashoffset: 0; stroke-linejoin: miter; stroke-miterlimit: 4; fill: rgb(255,255,255); fill-rule: nonzero; opacity: 1;" vector-effect="non-scaling-stroke"  transform=" translate(-82.5006916202, -107.2767031693)" d="M 76.33 97.8 C 77.39275019784549 96.31067933292242 79.04876756218772 95.35500411385267 80.87 95.17999999999999 C 82.04136174782664 95.08233406431496 83.21978637606686 95.24628879520056 84.32000000000001 95.66 C 85.1779892035731 95.96894445195028 85.8907107874538 96.58544862200708 86.32000000000001 97.39 C 86.43 96.75 86.56 96.13 86.65 95.49 C 87.93 95.49 89.2 95.49 90.48 95.49 L 90.48 112.49 C 90.55102144514817 114.19791363702117 89.98830488093799 115.87181734068436 88.9 117.19 C 87.49749481618673 118.47679258977978 85.682142470728 119.22137070022183 83.78 119.28999999999999 C 81.62069407294193 119.60144442726023 79.41767462516357 119.25286540071302 77.46000000000001 118.28999999999999 C 76.20076455395083 117.63238129510587 75.29928266862326 116.44872825054976 75 115.06 L 79.46 114.34 C 79.54733734823633 114.79480799327304 79.80033413594921 115.20102818762895 80.16999999999999 115.48 C 80.99759435821022 115.92032023403473 81.93736476166126 116.10479368360105 82.86999999999999 116.01 C 83.76799056589041 116.0556000286681 84.64454780519095 115.72598552959228 85.28999999999999 115.10000000000001 C 85.8785763712136 114.31228513358376 86.16909067100136 113.34154222941491 86.10999999999999 112.36000000000001 C 86.10999999999999 111.64000000000001 86.10999999999999 110.92000000000002 86.10999999999999 110.20000000000002 C 85.69243721947414 110.96324823187865 85.08656415850388 111.60698835915956 84.34999999999998 112.07000000000002 C 83.22001357619862 112.62802804425692 81.94530467168116 112.82359982138837 80.69999999999997 112.63000000000002 C 78.98504162656587 112.46365091579888 77.4095994225091 111.61284002299018 76.32999999999997 110.27000000000002 C 75.09163220318344 108.5463341818148 74.4587083109194 106.46120158118943 74.52999999999997 104.34000000000003 C 74.40851151939971 102.01999767102164 75.04753307663329 99.72373339392952 76.34999999999997 97.80000000000003 Z M 81.84 98.42999999999999 C 81.17479876482359 98.55686292385982 80.57407821995034 98.91022795025586 80.14 99.42999999999999 C 79.56709701360485 100.18443670480795 79.22030279167079 101.08610168183651 79.14 102.02999999999999 C 79.02001301158764 103.08994848755238 79.02001301158764 104.1600515124476 79.14 105.21999999999998 C 79.18365632987923 106.29270545992135 79.57698822595346 107.32168979518696 80.26 108.14999999999999 C 80.84338896991328 108.73835294756212 81.65325947898874 109.04479043748256 82.48 108.99 C 83.36410607610337 109.02788102180475 84.22600866340723 108.7069214809259 84.87 108.1 C 85.5065512477506 107.36900391372265 85.907397564331 106.4627426762365 86.02000000000001 105.5 C 86.16442059672832 104.60437496309848 86.21469452474753 103.69609266355148 86.17000000000002 102.79 C 86.15169194247329 101.52910864440695 85.68356382018915 100.31623123667073 84.85000000000002 99.37 C 84.06722900310916 98.57982153362705 82.94247089977274 98.23114652159276 81.85000000000002 98.44 Z" stroke-linecap="round" />
</g>
		<g transform="matrix(1.9490528769 0 0 1.9490527398 75.412248175 -0.2467977147)" id="3CRf77zSKaVzmScxEUG81"  >
<path style="stroke: none; stroke-width: 1; stroke-dasharray: none; stroke-linecap: butt; stroke-dashoffset: 0; stroke-linejoin: miter; stroke-miterlimit: 4; fill: rgb(255,255,255); fill-rule: nonzero; opacity: 1;" vector-effect="non-scaling-stroke"  transform=" translate(-101.087148117, -104.0737899739)" d="M 95.14 97.67 C 96.33301793092788 96.29120381902314 98.00650548979019 95.41870175841972 99.82 95.23 C 101.84395440928148 94.92131741753809 103.91253791730257 95.31667808801312 105.67999999999999 96.35000000000001 C 107.0683825044552 97.27809101911078 108.07921311351792 98.67197322739726 108.52999999999999 100.28000000000002 C 108.95890631756261 101.73889176058948 109.11152366561295 103.265065241093 108.97999999999999 104.78000000000002 L 97.62 104.78000000000002 C 97.57007099462997 105.94614355624913 97.84716736635148 107.10302090818648 98.42 108.12000000000002 C 98.95082688522238 108.9124167186077 99.79510577514284 109.44009102480798 100.74 109.57000000000002 C 101.71193379048347 109.74549913719171 102.71435660806941 109.61626692725903 103.61 109.20000000000002 C 104.37680596106549 108.77922133529248 105.02380847378558 108.17007535257197 105.49 107.43000000000002 L 108.80999999999999 109.28000000000002 C 107.73919294019893 111.06601623192859 105.96279240204629 112.3156722342282 103.91999999999999 112.72000000000001 C 101.86728599332555 113.21616556186058 99.7137000386533 113.0943957582846 97.72999999999999 112.37000000000002 C 96.19430587489423 111.7502076177961 94.94104613506765 110.58595780267311 94.21 109.10000000000002 C 93.34156755223991 107.18779683191775 92.99647525647437 105.07928290479028 93.21 102.99000000000002 C 93.28793585710427 101.05811907573991 93.96604625223299 99.19855861074778 95.14999999999999 97.67000000000002 Z M 98.67 99.24 C 98.05945847600391 99.96901416428798 97.70778639326029 100.87984485859394 97.67 101.83 L 104.57000000000001 101.83 C 104.59345670707903 100.8959527034003 104.28919374362304 99.98316381303236 103.71000000000001 99.25 C 102.9556782637641 98.49021543864978 101.89286404137724 98.12118272254324 100.83000000000001 98.25 C 99.99964014921346 98.28174548576858 99.21572085078272 98.64134149422306 98.65 99.25 Z" stroke-linecap="round" />
</g>
</g>
</g>
<g transform="matrix(5.38 0 0 1.3859896248 249.4994224105 341.6617586628)" id="-xIoeLoWQS7X_4TfRLvbL"  >
<path style="stroke: rgb(139,15,69); stroke-width: 0; stroke-dasharray: none; stroke-linecap: butt; stroke-dashoffset: 0; stroke-linejoin: miter; stroke-miterlimit: 4; fill: rgb(255,255,255); fill-rule: nonzero; opacity: 1;" vector-effect="non-scaling-stroke"  transform=" translate(-0.000005, -0.000005)" d="M -20.40816 -20.40816 L 20.408170000000002 -20.40816 L 20.408170000000002 20.408170000000002 L -20.40816 20.408170000000002 z" stroke-linecap="round" />
</g>
<g transform="matrix(5.7457896247 0 0 3.5131428571 249.3172887535 233.4462924374)" id="lM2oU6DnNm8BzWCcBELEp"  >
<path style="stroke: rgb(179,202,235); stroke-width: 0; stroke-dasharray: none; stroke-linecap: butt; stroke-dashoffset: 0; stroke-linejoin: miter; stroke-miterlimit: 4; fill: rgb(255,255,255); fill-rule: nonzero; opacity: 1;" vector-effect="non-scaling-stroke"  transform=" translate(0, 0)" d="M -29.48113 -29.48113 L 29.48113 -29.48113 L 29.48113 29.48113 L -29.48113 29.48113 z" stroke-linecap="round" />
</g>
<g transform="matrix(4.9286903657 0 0 2.7098613037 249.030863053 233.4864771144)" id="_rEqzMf70RFCRTmxntj3O"  >
<path style="stroke: rgb(179,202,235); stroke-width: 0; stroke-dasharray: none; stroke-linecap: butt; stroke-dashoffset: 0; stroke-linejoin: miter; stroke-miterlimit: 4; fill: rgb(255,102,0); fill-rule: nonzero; opacity: 1;" vector-effect="non-scaling-stroke"  transform=" translate(0, 0)" d="M -29.48113 -29.48113 L 29.48113 -29.48113 L 29.48113 29.48113 L -29.48113 29.48113 z" stroke-linecap="round" />
</g>
<g transform="matrix(0.41 0 0 0.41 248.9513066206 339.5261402829)" id="nfgIsJWY6_LiLLZtOaXhV"  >
<path style="stroke: rgb(140,231,27); stroke-width: 0; stroke-dasharray: none; stroke-linecap: butt; stroke-dashoffset: 0; stroke-linejoin: miter; stroke-miterlimit: 4; fill: rgb(255,102,0); fill-rule: nonzero; opacity: 1;" vector-effect="non-scaling-stroke"  transform=" translate(0, 0)" d="M 0 -29.48113 C 16.27358 -29.48113 29.48113 -16.273580000000003 29.48113 0 C 29.48113 16.27358 16.273580000000003 29.48113 0 29.48113 C -16.27358 29.48113 -29.48113 16.273580000000003 -29.48113 0 C -29.48113 -16.27358 -16.273580000000003 -29.48113 0 -29.48113 z" stroke-linecap="round" />
</g>
</svg>