<svg xmlns="http://www.w3.org/2000/svg" viewBox="0 0 194.96 33.81"><defs><style>.cls-1{fill:#fa481c;}</style></defs><g id="Calque_2" data-name="Calque 2"><g id="Calque_1-2" data-name="Calque 1"><path class="cls-1" d="M20,5.68c7.7,0,17.19,2.11,17.19,9.79V33.81H23.6V25.9s-3.3,1.16-5.83,1.94c-1.7.47-3,1.43-3.09,3.16-.14,1.47,1.52,2.81,1.51,2.81H2.88A4.48,4.48,0,0,1,0,29.56c.28-6.06,5-8.29,16.62-9.63,6.26-.78,7-1.38,7-2.95,0-1.29-.77-2.76-4.32-2.81-5.11,0-4.75,3.46-4.75,3.45h-13S1.64,5.7,20,5.68M61.2,6a8.1,8.1,0,0,0-6.11,4.39V6.47H42.43V33.81H56.24V20.72c0-2.32.66-3.35,1.51-4.18a6.33,6.33,0,0,1,4.46-1.65H66.1V6.47A9.32,9.32,0,0,0,61.2,6M88.76,0H75.09V6.47H69.41v8.42h5.68V26c0,2.4,0,4.37,1.72,6.25,1.55,1.58,3.57,1.51,6,1.52h6V14.89H97V6.47h-8.2Zm29.85,5.9c22.92.25,19.22,21,19.2,21H113.36v6.91h-10s-4.1-3.72-4-11.08C99.48,5.59,117.89,5.88,118.61,5.9m6,14.1s.57-5.6-6-5.61C112.3,14.35,113,20,113,20h11.58"/><path class="cls-1" d="M164.09,5.9h-9.4v5.34h-4v7h4v9.2c0,2,0,3.61,1.42,5.17,1.27,1.3,2.94,1.24,4.93,1.25h3.05V18.19h5.41v-7h-5.41Z"/><rect class="cls-1" x="141.3" y="26.9" width="6.91" height="6.91"/><path class="cls-1" d="M171.08,11.13h9.34l2.64,13.66,2.56-13.66H195l-7.35,22.68h-9.18Z"/></g></g></svg>