<?xml version="1.0" encoding="utf-8"?>
<!-- Generator: Adobe Illustrator 19.2.1, SVG Export Plug-In . SVG Version: 6.00 Build 0)  -->
<svg version="1.1" id="layer" xmlns="http://www.w3.org/2000/svg" xmlns:xlink="http://www.w3.org/1999/xlink" x="0px" y="0px"
     viewBox="0 0 652 652" style="enable-background:new 0 0 652 652;" xml:space="preserve">
<style type="text/css">
	.st0{fill:#172128;}
	.st1{fill:#FFFFFF;}
	.st2{fill:#FFFFFF;filter:url(#Adobe_OpacityMaskFilter);}
	.st3{mask:url(#path-1-inside-1_17542_118597_1_);fill:#FFFFFF;}
	.st4{fill:url(#SVGID_1_);}
	.st5{fill:url(#SVGID_2_);}
	.st6{fill:url(#SVGID_3_);}
	.st7{fill:url(#SVGID_4_);}
</style>
    <rect x="26.4" y="176.4" class="st0" width="600" height="300"/>
    <path class="st1" d="M128.3,296.1c1.4,0,2.9,0.2,4.3,0.6l2.2-12.9c-2.8-0.7-5.6-1.1-8.5-1c-7.3,0-12.8,2.8-16.6,6.6
	s-5.7,9.3-5.7,18.4v2.3H90.2v12.8H104v43.5h14.3v-43.5h16.5v-12.8h-16.5v-1.7c0-5.2,0.8-7.3,2-8.9
	C122,297.2,124.8,296.1,128.3,296.1z M231.5,366.4h-13.7v-4.5c-4.1,3.7-9.4,5.8-14.8,5.7c-3.8,0-7.6-0.8-11-2.5
	c-3.5-1.6-6.6-4-9.1-7c-4.4-5.5-6.9-12.5-6.8-19.7c0-16.6,11.6-29.4,26.2-29.4c5.7-0.1,11.2,1.9,15.6,5.7v-4.5h13.7V366.4z
	 M217.2,329.8c-1.5-2.2-3.5-3.9-5.8-5.1c-2.3-1.2-4.8-1.8-7.4-1.8c-8.4,0-13.7,7.3-13.7,15.4c0,8.8,6,15.3,14.1,15.3
	c2.5,0,5-0.6,7.2-1.8c2.2-1.2,4.2-3,5.6-5.2V329.8z M243.1,310.1v56.3h14.3v-36.6c1.5-2.1,3.5-3.8,5.7-5c2.2-1.2,4.7-1.9,7.2-1.9
	c3-0.1,5.8,1,8,3.1c2,2.1,3.2,5,3.2,10.6v29.8h14.3v-28.7c0-9.6-2-15.3-5.5-19.7c-2.3-2.8-5.1-5.1-8.3-6.7
	c-3.2-1.6-6.7-2.4-10.2-2.4c-5.5,0-10.8,2-15.1,5.7v-4.5H243.1z M388,367.6c8.2,0,16.7-3.6,21.9-10.1l-8.1-8.6
	c-2.5,2.9-7.4,6.5-13.4,6.5c-7.6,0-13.6-5.5-14.4-13.4h36.9c0.2-1.4,0.3-2.9,0.3-4.3c0-15.7-10.4-28.8-25.2-28.8
	c-15.8,0-25.9,13.7-25.9,29.4C360.1,356,372.1,367.6,388,367.6z M393.1,323.9c1.9,1.8,3.2,4.3,3.5,7.1h-22c0.7-5.1,5.5-9.9,11.4-9.9
	C388.6,321.1,391.1,322.1,393.1,323.9z M332.6,367.6c10,0,17.9-3.8,24.2-12.7l-11-8.7c-1.4,2.2-3.3,4.1-5.5,5.4
	c-2.2,1.3-4.7,2-7.2,2.1c-8.7,0-14.7-6.5-14.7-15.3c0-2,0.3-4,1-5.9c0.7-1.9,1.8-3.6,3.1-5c1.3-1.4,2.9-2.6,4.7-3.4
	c1.8-0.8,3.7-1.2,5.6-1.1c2.4,0,4.8,0.7,6.9,1.8c2.1,1.2,4,2.9,5.4,4.9l10.1-9.4c-2.7-3.5-6.1-6.4-10-8.4c-3.9-2-8.1-2.9-12.4-2.9
	c-16.3,0-28.7,13.1-28.7,29.4C304.1,354.6,316.2,367.6,332.6,367.6z M173.8,323.4c-1.7-0.4-3.4-0.6-5.2-0.6c-6.3,0-11.2,4.8-13,8.1
	v35.4h-14.3v-56.3h13.7v5.7c3.2-4.2,9-6.8,15.5-6.8c1.6,0,3.2,0.2,4.8,0.5L173.8,323.4z"/>
    <defs>
	<filter id="Adobe_OpacityMaskFilter" filterUnits="userSpaceOnUse" x="87" y="279.5" width="327.5" height="91.3">
		<feColorMatrix  type="matrix" values="1 0 0 0 0  0 1 0 0 0  0 0 1 0 0  0 0 0 1 0"/>
	</filter>
</defs>
    <mask maskUnits="userSpaceOnUse" x="87" y="279.5" width="327.5" height="91.3" id="path-1-inside-1_17542_118597_1_">
	<path class="st2" d="M128.3,296.1c1.4,0,2.9,0.2,4.3,0.6l2.2-12.9c-2.8-0.7-5.6-1.1-8.5-1c-7.3,0-12.8,2.8-16.6,6.6
		s-5.7,9.3-5.7,18.4v2.3H90.2v12.8H104v43.5h14.3v-43.5h16.5v-12.8h-16.5v-1.7c0-5.2,0.8-7.3,2-8.9
		C122,297.2,124.8,296.1,128.3,296.1z M231.5,366.4h-13.7v-4.5c-4.1,3.7-9.4,5.8-14.8,5.7c-3.8,0-7.6-0.8-11-2.5
		c-3.5-1.6-6.6-4-9.1-7c-4.4-5.5-6.9-12.5-6.8-19.7c0-16.6,11.6-29.4,26.2-29.4c5.7-0.1,11.2,1.9,15.6,5.7v-4.5h13.7V366.4z
		 M217.2,329.8c-1.5-2.2-3.5-3.9-5.8-5.1c-2.3-1.2-4.8-1.8-7.4-1.8c-8.4,0-13.7,7.3-13.7,15.4c0,8.8,6,15.3,14.1,15.3
		c2.5,0,5-0.6,7.2-1.8c2.2-1.2,4.2-3,5.6-5.2V329.8z M243.1,310.1v56.3h14.3v-36.6c1.5-2.1,3.5-3.8,5.7-5c2.2-1.2,4.7-1.9,7.2-1.9
		c3-0.1,5.8,1,8,3.1c2,2.1,3.2,5,3.2,10.6v29.8h14.3v-28.7c0-9.6-2-15.3-5.5-19.7c-2.3-2.8-5.1-5.1-8.3-6.7
		c-3.2-1.6-6.7-2.4-10.2-2.4c-5.5,0-10.8,2-15.1,5.7v-4.5H243.1z M388,367.6c8.2,0,16.7-3.6,21.9-10.1l-8.1-8.6
		c-2.5,2.9-7.4,6.5-13.4,6.5c-7.6,0-13.6-5.5-14.4-13.4h36.9c0.2-1.4,0.3-2.9,0.3-4.3c0-15.7-10.4-28.8-25.2-28.8
		c-15.8,0-25.9,13.7-25.9,29.4C360.1,356,372.1,367.6,388,367.6z M393.1,323.9c1.9,1.8,3.2,4.3,3.5,7.1h-22
		c0.7-5.1,5.5-9.9,11.4-9.9C388.6,321.1,391.1,322.1,393.1,323.9z M332.6,367.6c10,0,17.9-3.8,24.2-12.7l-11-8.7
		c-1.4,2.2-3.3,4.1-5.5,5.4c-2.2,1.3-4.7,2-7.2,2.1c-8.7,0-14.7-6.5-14.7-15.3c0-2,0.3-4,1-5.9c0.7-1.9,1.8-3.6,3.1-5
		c1.3-1.4,2.9-2.6,4.7-3.4c1.8-0.8,3.7-1.2,5.6-1.1c2.4,0,4.8,0.7,6.9,1.8c2.1,1.2,4,2.9,5.4,4.9l10.1-9.4c-2.7-3.5-6.1-6.4-10-8.4
		c-3.9-2-8.1-2.9-12.4-2.9c-16.3,0-28.7,13.1-28.7,29.4C304.1,354.6,316.2,367.6,332.6,367.6z M173.8,323.4
		c-1.7-0.4-3.4-0.6-5.2-0.6c-6.3,0-11.2,4.8-13,8.1v35.4h-14.3v-56.3h13.7v5.7c3.2-4.2,9-6.8,15.5-6.8c1.6,0,3.2,0.2,4.8,0.5
		L173.8,323.4z"/>
</mask>
    <path class="st3" d="M132.6,296.7l-0.8,3.2l3.5,0.9l0.6-3.5L132.6,296.7z M128.3,296.1l0-3.3h0V296.1z M134.8,283.8l3.2,0.5l0.5-2.9
	l-2.9-0.8L134.8,283.8z M126.3,282.8v3.3h0l0,0L126.3,282.8z M109.7,289.4l-2.3-2.3l0,0L109.7,289.4z M104,310.1v3.3h3.3v-3.3H104z
	 M90.2,310.1v-3.3H87v3.3H90.2z M90.2,322.9H87v3.3h3.3V322.9z M104,322.9h3.3v-3.3H104V322.9z M104,366.4h-3.3v3.3h3.3V366.4z
	 M118.3,366.4v3.3h3.3v-3.3H118.3z M118.3,322.9v-3.3H115v3.3H118.3z M134.8,322.9v3.3h3.3v-3.3H134.8z M134.8,310.1h3.3v-3.3h-3.3
	V310.1z M118.3,310.1H115v3.3h3.3V310.1z M120.3,299.4l-2.5-2l0,0l0,0L120.3,299.4z M217.8,366.4h-3.3v3.3h3.3V366.4z M231.5,366.4
	v3.3h3.3v-3.3H231.5z M217.8,361.9h3.3v-7.4l-5.5,4.9L217.8,361.9z M202.9,367.6l0-3.3l0,0h0L202.9,367.6z M191.9,365.1l-1.4,2.9
	l0,0L191.9,365.1z M182.8,358.1l-2.5,2l0,0l0,0L182.8,358.1z M176,338.3l3.3,0v0H176z M202.1,308.9v3.3l0,0L202.1,308.9z
	 M217.8,314.6l-2.1,2.5l5.4,4.6v-7H217.8z M217.8,310.1v-3.3h-3.3v3.3H217.8z M231.5,310.1h3.3v-3.3h-3.3V310.1z M211.4,324.7
	l1.5-2.9l0,0L211.4,324.7z M217.2,329.8h3.3v-1l-0.6-0.8L217.2,329.8z M204,322.9v3.3h0L204,322.9z M204.3,353.6l0-3.3h0V353.6z
	 M211.6,351.8l1.6,2.9v0L211.6,351.8z M217.2,346.7l2.7,1.8l0.6-0.8v-1H217.2z M243.1,366.4h-3.3v3.3h3.3V366.4z M243.1,310.1v-3.3
	h-3.3v3.3H243.1z M257.4,366.4v3.3h3.3v-3.3H257.4z M257.4,329.8l-2.6-1.9l-0.6,0.9v1.1H257.4z M263.1,324.8l1.5,2.9l0,0
	L263.1,324.8z M270.4,322.9l0.1,3.3l0,0L270.4,322.9z M278.4,326l2.4-2.2l0,0l0,0L278.4,326z M281.6,366.4h-3.3v3.3h3.3V366.4z
	 M295.9,366.4v3.3h3.3v-3.3H295.9z M290.4,318l-2.6,2l0,0L290.4,318z M282.1,311.3l-1.4,2.9l0,0L282.1,311.3z M271.9,308.9l0,3.3
	l0,0L271.9,308.9z M256.8,314.6h-3.3v7.2l5.4-4.7L256.8,314.6z M256.8,310.1h3.3v-3.3h-3.3V310.1z M409.9,357.5l2.6,2l1.8-2.2
	l-1.9-2.1L409.9,357.5z M401.8,348.9l2.4-2.2l-2.5-2.6l-2.4,2.7L401.8,348.9z M374,342v-3.3h-3.6l0.3,3.6L374,342z M410.9,342v3.3
	h2.8l0.4-2.8L410.9,342z M411.2,337.7h-3.3v0l0,0L411.2,337.7z M396.6,331v3.3h3.7l-0.4-3.6L396.6,331z M393.1,323.9l-2.2,2.4l0,0
	L393.1,323.9z M374.6,331l-3.2-0.4l-0.5,3.7h3.7V331z M386,321.1l0-3.3h0V321.1z M356.8,354.9l2.7,1.9l1.8-2.5l-2.4-1.9L356.8,354.9
	z M345.8,346.2l2-2.6l-2.9-2.3l-1.9,3.1L345.8,346.2z M340.3,351.6l1.6,2.8l0,0L340.3,351.6z M333.1,353.6v3.3h0l0,0L333.1,353.6z
	 M318.4,338.3h3.3v0l0,0L318.4,338.3z M327.2,324l-1.3-3l0,0L327.2,324z M332.8,322.9l0-3.3l0,0L332.8,322.9z M345.1,329.6l-2.7,1.8
	l2.1,3.1l2.8-2.6L345.1,329.6z M355.2,320.2l2.2,2.4l2.2-2l-1.8-2.4L355.2,320.2z M332.8,308.9v3.3l0,0L332.8,308.9z M168.6,322.9
	v3.3h0l0,0L168.6,322.9z M173.8,323.4l-0.8,3.2l3.6,0.9l0.4-3.7L173.8,323.4z M155.6,331l-2.9-1.5l-0.4,0.7v0.8H155.6z M155.6,366.4
	v3.3h3.3v-3.3H155.6z M141.4,366.4h-3.3v3.3h3.3V366.4z M141.4,310.1v-3.3h-3.3v3.3H141.4z M155.1,310.1h3.3v-3.3h-3.3V310.1z
	 M155.1,315.8h-3.3v9.6l5.9-7.7L155.1,315.8z M170.6,308.9l0-3.3h0V308.9z M175.4,309.4l3.2,0.4l0.4-3l-3-0.6L175.4,309.4z
	 M133.4,293.6c-1.7-0.4-3.4-0.7-5.1-0.7l-0.1,6.5c1.2,0,2.3,0.2,3.5,0.5L133.4,293.6z M131.5,283.3l-2.2,12.9l6.4,1.1l2.2-12.9
	L131.5,283.3z M126.3,286.1c2.6,0,5.1,0.3,7.6,0.9l1.7-6.3c-3.1-0.8-6.2-1.2-9.4-1.2L126.3,286.1z M112,291.7
	c3.1-3.2,7.9-5.6,14.3-5.6v-6.5c-8.1,0-14.6,3.1-18.9,7.6L112,291.7z M107.2,307.8c0-8.6,1.9-13.1,4.8-16.1l-4.7-4.6
	c-4.6,4.7-6.7,11.1-6.7,20.6H107.2z M107.2,310.1v-2.3h-6.5v2.3H107.2z M90.2,313.4H104v-6.5H90.2V313.4z M93.5,322.9v-12.8H87v12.8
	H93.5z M104,319.6H90.2v6.5H104V319.6z M107.2,366.4v-43.5h-6.5v43.5H107.2z M118.3,363.2H104v6.5h14.3V363.2z M115,322.9v43.5h6.5
	v-43.5H115z M134.8,319.6h-16.5v6.5h16.5V319.6z M131.5,310.1v12.8h6.5v-12.8H131.5z M118.3,313.4h16.5v-6.5h-16.5V313.4z
	 M115,308.3v1.7h6.5v-1.7H115z M117.6,297.5c-1.8,2.4-2.6,5.4-2.6,10.9h6.5c0-4.9,0.7-6.2,1.3-7L117.6,297.5z M128.3,292.9
	c-4.2,0-8,1.3-10.6,4.5l5.1,4.1c0.9-1.2,2.6-2,5.5-2V292.9z M217.8,369.7h13.7v-6.5h-13.7V369.7z M214.5,361.9v4.5h6.5v-4.5H214.5z
	 M202.9,370.8c6.3,0.1,12.4-2.2,17.1-6.5l-4.4-4.8c-3.5,3.2-8,4.9-12.6,4.8L202.9,370.8z M190.5,368c3.9,1.8,8.1,2.8,12.4,2.8l0-6.5
	c-3.3,0-6.6-0.7-9.6-2.2L190.5,368z M180.3,360.2c2.8,3.4,6.3,6.1,10.2,7.9l2.8-5.9c-3-1.4-5.8-3.5-8-6.2L180.3,360.2z M172.7,338.3
	c0,8,2.6,15.7,7.5,21.8l5.1-4.1c-4-4.9-6.1-11.2-6.1-17.7L172.7,338.3z M202.1,305.7c-16.6,0-29.4,14.6-29.4,32.6h6.5
	c0-15.2,10.5-26.1,22.9-26.1V305.7z M219.9,312.1c-5-4.2-11.3-6.5-17.8-6.5l0.1,6.5c4.9-0.1,9.6,1.7,13.5,4.9L219.9,312.1z
	 M214.5,310.1v4.5h6.5v-4.5H214.5z M231.5,306.8h-13.7v6.5h13.7V306.8z M234.7,366.4v-56.3h-6.5v56.3H234.7z M209.9,327.6
	c1.8,1,3.4,2.4,4.7,4.1l5.3-3.8c-1.8-2.6-4.2-4.7-7-6.1L209.9,327.6z M204,326.1c2,0,4,0.5,5.8,1.5l3-5.8c-2.8-1.5-5.8-2.2-8.9-2.2
	L204,326.1z M193.5,338.3c0-6.9,4.4-12.2,10.5-12.2v-6.5c-10.7,0-17,9.3-17,18.7H193.5z M204.3,350.4c-6,0-10.8-4.8-10.8-12.1H187
	c0,10.4,7.3,18.6,17.3,18.6V350.4z M210,349c-1.8,1-3.7,1.4-5.7,1.4l-0.1,6.5c3.1,0,6.1-0.7,8.8-2.2L210,349z M214.5,344.9
	c-1.2,1.7-2.7,3.1-4.5,4.1l3.1,5.7c2.7-1.5,5-3.6,6.8-6.2L214.5,344.9z M213.9,329.8v16.8h6.5v-16.8H213.9z M246.4,366.4v-56.3h-6.5
	v56.3H246.4z M257.4,363.2h-14.3v6.5h14.3V363.2z M254.1,329.8v36.6h6.5v-36.6H254.1z M261.6,321.9c-2.7,1.4-5,3.5-6.8,6l5.3,3.9
	c1.3-1.7,2.9-3.1,4.7-4.1L261.6,321.9z M270.3,319.6c-3,0.1-6,0.9-8.7,2.3l3.1,5.7c1.8-1,3.8-1.5,5.8-1.6L270.3,319.6z M280.7,323.7
	c-2.8-2.7-6.5-4.2-10.4-4.1l0.2,6.5c2-0.1,4.1,0.7,5.6,2.2L280.7,323.7z M284.8,336.6c0-6.1-1.3-9.9-4.1-12.8l-4.7,4.5
	c1.2,1.3,2.3,3.3,2.3,8.3H284.8z M284.8,366.4v-29.8h-6.5v29.8H284.8z M295.9,363.2h-14.3v6.5h14.3V363.2z M292.6,337.7v28.7h6.5
	v-28.7H292.6z M287.8,320c2.9,3.7,4.8,8.6,4.8,17.7h6.5c0-10.1-2.1-16.6-6.2-21.8L287.8,320z M280.7,314.2c2.7,1.3,5.2,3.3,7.2,5.8
	l5.1-4.1c-2.6-3.2-5.8-5.8-9.4-7.6L280.7,314.2z M271.9,312.2c3,0,6,0.7,8.7,2l2.9-5.9c-3.6-1.8-7.6-2.7-11.6-2.7L271.9,312.2z
	 M259,317.1c3.7-3.2,8.2-4.9,12.9-4.9l0-6.5c-6.3,0-12.4,2.3-17.2,6.5L259,317.1z M253.6,310.1v4.5h6.5v-4.5H253.6z M243.1,313.4
	h13.7v-6.5h-13.7V313.4z M407.3,355.4c-4.5,5.6-11.9,8.9-19.3,8.9v6.5c9.1,0,18.6-4,24.4-11.3L407.3,355.4z M399.4,351.1l8.1,8.6
	l4.8-4.5l-8.1-8.6L399.4,351.1z M388.4,358.6c7.3,0,13-4.3,15.9-7.6l-4.9-4.3c-2.2,2.5-6.2,5.4-11,5.4V358.6z M370.7,342.3
	c0.9,9.5,8.3,16.3,17.6,16.3v-6.5c-5.9,0-10.5-4.1-11.2-10.4L370.7,342.3z M410.9,338.8H374v6.5h36.9V338.8z M407.9,337.8
	c0,1.3-0.1,2.5-0.3,3.8l6.4,1c0.2-1.6,0.3-3.2,0.3-4.8L407.9,337.8z M386,312.2c12.4,0,21.9,11.1,21.9,25.5h6.5
	c0-17-11.4-32.1-28.4-32.1V312.2z M363.4,338.3c0-14.4,9.2-26.1,22.7-26.1v-6.5c-18.1,0-29.2,15.7-29.2,32.6H363.4z M388,364.3
	c-7.2,0-13.3-2.6-17.6-7c-4.3-4.4-7.1-10.9-7.1-19h-6.5c0,9.6,3.3,17.7,8.9,23.5c5.6,5.8,13.5,9,22.3,9V364.3z M399.8,330.6
	c-0.4-3.5-2-6.7-4.5-9.1l-4.5,4.8c1.4,1.3,2.3,3.1,2.5,5L399.8,330.6z M374.6,334.3h22v-6.5h-22V334.3z M386,317.9
	c-7.6,0-13.8,6.1-14.7,12.7l6.5,0.8c0.5-3.6,4-7,8.2-7V317.9z M395.3,321.6c-2.5-2.4-5.8-3.7-9.3-3.7l0,6.5c1.7,0,3.5,0.7,4.8,1.9
	L395.3,321.6z M354.2,353c-5.6,8-12.6,11.3-21.5,11.3v6.5c11,0,20-4.3,26.8-14L354.2,353z M343.8,348.8l11,8.7l4.1-5.1l-11-8.7
	L343.8,348.8z M342,354.4c2.7-1.6,5-3.8,6.6-6.5l-5.5-3.4c-1.1,1.8-2.6,3.3-4.4,4.3L342,354.4z M333.2,356.9
	c3.1-0.1,6.1-0.9,8.8-2.5l-3.3-5.6c-1.7,1-3.7,1.6-5.7,1.6L333.2,356.9z M315.1,338.3c0,10.5,7.4,18.6,18,18.6v-6.5
	c-6.7,0-11.5-4.9-11.5-12.1H315.1z M316.3,331.2c-0.9,2.3-1.3,4.7-1.2,7.1l6.5-0.1c0-1.6,0.2-3.2,0.8-4.7L316.3,331.2z M320.1,325.1
	c-1.6,1.8-2.9,3.8-3.8,6.1l6.1,2.3c0.6-1.5,1.4-2.8,2.4-4L320.1,325.1z M325.9,321c-2.2,1-4.2,2.4-5.8,4.1l4.8,4.4
	c1-1.1,2.3-2,3.6-2.6L325.9,321z M332.8,319.6c-2.4,0-4.7,0.5-6.9,1.4l2.6,6c1.4-0.6,2.8-0.9,4.2-0.9L332.8,319.6z M341.2,321.8
	c-2.6-1.4-5.5-2.2-8.4-2.2l-0.1,6.5c1.9,0,3.7,0.5,5.4,1.4L341.2,321.8z M347.7,327.8c-1.7-2.5-3.9-4.5-6.5-5.9l-3.1,5.7
	c1.7,0.9,3.1,2.2,4.3,3.9L347.7,327.8z M353,317.8l-10.1,9.4l4.4,4.8l10.1-9.4L353,317.8z M343.7,314.8c3.4,1.7,6.5,4.2,8.9,7.4
	l5.2-3.9c-3-3.9-6.8-7.1-11.1-9.3L343.7,314.8z M332.8,312.2c3.8,0,7.5,0.8,10.9,2.6l2.9-5.8c-4.3-2.2-9.1-3.3-13.9-3.3L332.8,312.2
	z M307.3,338.3c0-14.6,11.1-26.1,25.4-26.1v-6.5c-18.2,0-31.9,14.7-31.9,32.6H307.3z M332.6,364.3c-14.6,0-25.3-11.4-25.3-26h-6.5
	c0,17.9,13.4,32.5,31.8,32.5V364.3z M168.7,326.1c1.4,0,2.9,0.1,4.3,0.5l1.6-6.3c-2-0.5-4-0.7-6.1-0.7L168.7,326.1z M158.5,332.5
	c0.6-1.2,2-2.9,3.8-4.2c1.8-1.3,4-2.2,6.3-2.2v-6.5c-4,0-7.4,1.5-10.1,3.4c-2.6,1.9-4.6,4.3-5.8,6.5L158.5,332.5z M158.9,366.4V331
	h-6.5v35.4H158.9z M141.4,369.7h14.3v-6.5h-14.3V369.7z M138.1,310.1v56.3h6.5v-56.3H138.1z M155.1,306.8h-13.7v6.5h13.7V306.8z
	 M158.3,315.8v-5.7h-6.5v5.7H158.3z M170.6,305.7c-7.3,0-14.2,3-18.1,8.1l5.2,4c2.5-3.2,7.2-5.6,12.9-5.6V305.7z M176,306.2
	c-1.8-0.3-3.6-0.5-5.4-0.5l0,6.5c1.4,0,2.9,0.1,4.3,0.4L176,306.2z M177,323.8l1.6-14l-6.5-0.8l-1.6,14L177,323.8z"/>
    <radialGradient id="SVGID_1_" cx="-165.9101" cy="612.9305" r="3.2609" gradientTransform="matrix(-37.5853 0 0 39.7149 -5796.521 -24004.2246)" gradientUnits="userSpaceOnUse">
	<stop  offset="0" style="stop-color:#64C8D7"/>
        <stop  offset="0.28" style="stop-color:#60C4D6"/>
        <stop  offset="0.57" style="stop-color:#53B9D2"/>
        <stop  offset="0.86" style="stop-color:#3FA7CC"/>
        <stop  offset="1" style="stop-color:#329BC8"/>
</radialGradient>
    <path class="st4" d="M556.6,310.1h-14.8l-14.6,34.4l-14.6-34.4h-26.8v-15.7h-14.3v15.7h-13.7v12.8h13.7v19.7c0,8,1.2,13,4,16.8
	c3.6,5.1,9.9,8.1,18.5,8.1c3,0,6-0.4,8.9-1.2l-2.2-12.8c-1.9,0.4-3.9,0.6-5.8,0.6c-3.5,0-5.8-1-7.3-2.8c-1.2-1.5-1.8-3.6-1.8-7.1
	v-21.5h17.6l19,43.5h9.9L556.6,310.1z"/>
    <radialGradient id="SVGID_2_" cx="-115.0453" cy="585.6245" r="3.2607" gradientTransform="matrix(12.7846 0 0 -13.5089 1910.0758 8249.4014)" gradientUnits="userSpaceOnUse">
	<stop  offset="0" style="stop-color:#FF503C"/>
        <stop  offset="0.46" style="stop-color:#FF5447"/>
        <stop  offset="1" style="stop-color:#FF5A5A"/>
</radialGradient>
    <path class="st5" d="M439.3,353.6c8,0,14.6-6.9,14.6-15.4c0-8.5-6.5-15.4-14.6-15.4c-8,0-14.6,6.9-14.6,15.4
	C424.7,346.8,431.2,353.6,439.3,353.6z"/>
    <radialGradient id="SVGID_3_" cx="-170.9764" cy="615.6502" r="3.2609" gradientTransform="matrix(-26.9926 0 0 28.5221 -4175.8379 -17221.3867)" gradientUnits="userSpaceOnUse">
	<stop  offset="0.6" style="stop-color:#FFAA46"/>
        <stop  offset="0.75" style="stop-color:#FDAB48"/>
        <stop  offset="0.81" style="stop-color:#F6B04F"/>
        <stop  offset="0.86" style="stop-color:#E9B85B"/>
        <stop  offset="0.9" style="stop-color:#D8C36C"/>
        <stop  offset="0.93" style="stop-color:#C1D182"/>
        <stop  offset="0.96" style="stop-color:#A4E39D"/>
        <stop  offset="0.99" style="stop-color:#83F8BD"/>
        <stop  offset="1" style="stop-color:#78FFC8"/>
</radialGradient>
    <path class="st6" d="M512.5,310.1h-26.8v-15.7h-14.3v15.7h-13.7v12.8h13.7v19.7c0,8,1.2,13,4,16.8c3.6,5.1,9.9,8.1,18.5,8.1
	c3,0,6-0.4,8.9-1.2l-2.2-12.8c-1.9,0.4-3.9,0.6-5.8,0.6c-3.5,0-5.8-1-7.3-2.8c-1.2-1.5-1.8-3.6-1.8-7.1v-21.5h17.6l19,43.5h1
	c2.1-7.1,3.5-14.5,3.9-22L512.5,310.1z"/>
    <radialGradient id="SVGID_4_" cx="-129.4481" cy="599.6417" r="3.2609" gradientTransform="matrix(339.824 0 0 -723.674 55272.4922 440522.9375)" gradientUnits="userSpaceOnUse">
	<stop  offset="0" style="stop-color:#FF503C"/>
        <stop  offset="0.46" style="stop-color:#FF5447"/>
        <stop  offset="1" style="stop-color:#FF5A5A"/>
</radialGradient>
    <path class="st7" d="M471.3,310.1h-13.7v12.8h13.7v19.7c0,8,1.2,13,4,16.8l0.3,0.4c4.1-7.8,6-16.7,5.2-25.6
	C480,325.4,476.7,317,471.3,310.1z"/>
</svg>
