<svg xmlns="http://www.w3.org/2000/svg" viewBox="0 0 134 34">
    <g fill="none" fill-rule="nonzero">
        <path fill="#000" d="M38.758 31.855h93.391V3.218H38.76z"/>
        <path fill="#FFF" d="M57.087 25.149c-.036.181-.109.326-.109.326s-.109.109-.254.145c-2.328.942-4.91.616-4.91.616-4.182-.471-6.837-3.009-7.71-6.307-1.273-4.93 1.237-8.446 1.855-9.208 1.491-1.776 3.782-3.008 6.037-3.298a12.799 12.799 0 0 1 5.891.543s.982.327 1.71.798c.363.254.4.326.4.326s.036.036-.073.435l-.691 3.553c-.036.145-.11.217-.11.217s-.036.036-.4-.181c-2.181-1.559-4.727-1.341-4.727-1.341-1.927.108-4.182 1.123-4.873 3.697-.618 2.247.036 4.169 1.382 5.292.909.798 2.364 1.197 3.855 1.124 1.636-.108 2.945-.761 2.873-.725 0 0 .072-.036.145-.036.328-.181.4-.145.4-.145s.073.072.037.29l-.728 3.879zM94.691 25.801h-4.51l-.036-.036-6-10.658c-.037-.036-.073-.036-.073-.036s-.037 0-.037.073l-1.49 10.476c-.037.109-.037.145-.037.145s-.036.036-.11.036h-4.327c-.073 0-.109-.036-.109-.036s-.109-.109-.073-.181l2.364-16.929c.037-.109.073-.109.073-.109s.073-.072.145-.072h4.764a.16.16 0 0 1 .11.036s.036.036.072.109l5.419 9.497c.11.181.182.181.182.181s.073 0 .109-.217l1.382-9.461c0-.073.036-.109.036-.109s.037-.036.11-.036H97.2c.11 0 .11.036.11.036s.036.036.036.072l-2.437 17.074c-.036.109-.073.181-.073.181s-.036-.036-.145-.036M70.58 18.914l-.037.036-3.491-.036c-.11 0-.146-.037-.146-.037s-.036-.036.037-.108l2.364-5.365.036-.037s.036 0 .036.037l1.2 5.401c.037.109 0 .109 0 .109zM72.762 8.51c-.037-.072-.037-.109-.037-.109s-.073-.072-.182-.072H66.943s-.073.036-.11.109l-8.51 17.11c-.036.108-.036.18-.036.18s.037.073.182.037h4.91c.073 0 .145-.036.145-.036s.037-.037.073-.109l1.2-2.538c.073-.145.182-.217.182-.217s.073-.109.182-.109H71.198s.036.037.036.109l.655 2.719.036.181s.073.036.182.036h4.219c.036 0 .072-.036.072-.036s.037-.036.037-.109L72.762 8.51zM104.11 19.349c-.073 0-.109-.073-.109-.145l1.818-5.293c.037-.072.073-.072.073 0l1.782 5.257c.036.072-.036.145-.11.145h-3.454v.036zm-.545-10.984c-.073 0-.146.072-.182.145l-6.62 17.182c-.035.073 0 .145.074.145h4.51c.072 0 .145-.072.181-.145l1.091-2.755c.036-.072.11-.145.182-.145h6c.073 0 .146.073.182.145l1.055 2.755c.036.073.109.145.182.145h4.582c.073 0 .11-.072.11-.145l-6.51-17.182c-.037-.072-.11-.145-.182-.145h-4.655zM121.53 21.306c0 .073.073.145.145.145h5.528c.073 0 .146.073.146.145v4.06c0 .073-.073.145-.146.145h-10.728c-.073 0-.146-.072-.146-.145V7.821c0-.072.073-.145.146-.145h4.873c.073 0 .146.073.146.145v13.485h.036z"/>
        <path fill="#000" d="M33.921 12.969c-.181.109-.363.29-.509.471-1.418 1.269-2.145 1.776-3.018 2.429-.255-1.088-.546-2.211-.728-3.335.764-1.632 1.055-3.48.255-4.822-.327-.58-1.564-.652-1.855.037-.582 1.486-.654 2.972-.473 4.495-.4.797-.872 1.486-1.272 1.957-.437.508-1.237 1.45-1.928.906-1.345-1.087-1.636-3.588-1.89-5.147-.146-.87-1.856-.834-1.965.036-.29 1.849-.4 6.018-2.727 6.525v-.108c-.291-1.45-.4-3.154-.982-4.532-.255-.616-1.491-.761-1.819-.108-1.018 1.92-1.454 4.096-1.927 6.27-.182-.652-.327-1.304-.51-1.957-.436-1.558-.908-3.661-2.181-4.785-.546-.507-1.455-.471-1.819.218a24.213 24.213 0 0 0-1.672 4.314c-.546-2.103-1.419-4.097-2.91-5.655-.473-.508-1.527-.472-1.818.253C.282 15.108-.118 20.22.027 25.221c.037 1.015 2.037.943 2-.072-.145-4.241.146-8.555 1.455-12.615C5.52 15.76 5.628 20.146 5.92 23.808c.072 1.015 2.073.942 2-.073-.182-3.226.582-6.96 1.855-10.114.472 1.088.763 2.32 1.054 3.335.473 1.632.8 3.408 1.528 4.93.327.689 1.709.725 1.927-.072.618-2.03.873-4.278 1.455-6.416.073.507.145.978.254 1.45.364 1.812.619 3.697 1.237 5.437.327.906 2.291.544 1.927-.471-.436-1.233-.69-2.538-.945-3.806 2.073-.218 3.055-1.74 3.6-3.553.364.725.873 1.378 1.528 1.849 1.272.834 2.8.507 3.927-.399.291-.254.618-.544.91-.906.181.761.363 1.522.509 2.284-.255.217-.51.435-.8.688-2.037 1.777-6.365 5.257-5.492 8.447.473 1.63 2.582 2.356 4.073 2.32 2-.037 3.273-2.14 3.891-3.77.8-2.03.837-4.133.619-6.272-.037-.326-.073-.652-.146-.978.11-.073.218-.182.327-.29 2.4-1.994 2.037-1.342 4.328-3.444.728-.725-.945-1.414-1.564-1.015zm-4.91 8.809c-.145 1.74-.8 3.987-2.218 5.147-1.309 1.015-2.8-.399-2.545-1.776.29-1.414 1.564-2.719 2.51-3.734a30.323 30.323 0 0 1 2.181-2.139c.11.834.146 1.668.073 2.502z"/>
    </g>
</svg>
