<?xml version="1.0" encoding="UTF-8" standalone="no" ?>
<!DOCTYPE svg PUBLIC "-//W3C//DTD SVG 1.1//EN" "http://www.w3.org/Graphics/SVG/1.1/DTD/svg11.dtd">
<svg xmlns="http://www.w3.org/2000/svg" xmlns:xlink="http://www.w3.org/1999/xlink" version="1.1"
     width="480.1355723323153" height="480.1355723323153"
     viewBox="9.502354414642355 9.424658224742359 480.1355723323153 480.1355723323153" xml:space="preserve">
<desc>Created with Fabric.js 5.3.0</desc>
    <defs>
</defs>
    <g transform="matrix(6.8179246635 0 0 6.8179246635 249.5701405808 249.4924443909)" id="9nPnYGhhXrD4_0i_aKIf5">
<path style="stroke: rgb(217,254,230); stroke-width: 0; stroke-dasharray: none; stroke-linecap: butt; stroke-dashoffset: 0; stroke-linejoin: miter; stroke-miterlimit: 4; fill: rgb(255,102,0); fill-rule: nonzero; opacity: 1;"
      vector-effect="non-scaling-stroke" transform=" translate(0, 0)"
      d="M -35.21127 -35.21127 L 35.21127 -35.21127 L 35.21127 35.21127 L -35.21127 35.21127 z" stroke-linecap="round"/>
</g>

    <g transform="matrix(5.38 0 0 1.3859896248 249.4994224105 341.6617586628)" id="-xIoeLoWQS7X_4TfRLvbL">
<path style="stroke: rgb(139,15,69); stroke-width: 0; stroke-dasharray: none; stroke-linecap: butt; stroke-dashoffset: 0; stroke-linejoin: miter; stroke-miterlimit: 4; fill: rgb(255,255,255); fill-rule: nonzero; opacity: 1;"
      vector-effect="non-scaling-stroke" transform=" translate(-0.000005, -0.000005)"
      d="M -20.40816 -20.40816 L 20.408170000000002 -20.40816 L 20.408170000000002 20.408170000000002 L -20.40816 20.408170000000002 z"
      stroke-linecap="round"/>
</g>
    <g transform="matrix(5.7457896247 0 0 3.5131428571 249.3172887535 233.4462924374)" id="lM2oU6DnNm8BzWCcBELEp">
<path style="stroke: rgb(179,202,235); stroke-width: 0; stroke-dasharray: none; stroke-linecap: butt; stroke-dashoffset: 0; stroke-linejoin: miter; stroke-miterlimit: 4; fill: rgb(255,255,255); fill-rule: nonzero; opacity: 1;"
      vector-effect="non-scaling-stroke" transform=" translate(0, 0)"
      d="M -29.48113 -29.48113 L 29.48113 -29.48113 L 29.48113 29.48113 L -29.48113 29.48113 z" stroke-linecap="round"/>
</g>
    <g transform="matrix(4.9286903657 0 0 2.7098613037 249.030863053 233.4864771144)" id="_rEqzMf70RFCRTmxntj3O">
<path style="stroke: rgb(179,202,235); stroke-width: 0; stroke-dasharray: none; stroke-linecap: butt; stroke-dashoffset: 0; stroke-linejoin: miter; stroke-miterlimit: 4; fill: rgb(255,102,0); fill-rule: nonzero; opacity: 1;"
      vector-effect="non-scaling-stroke" transform=" translate(0, 0)"
      d="M -29.48113 -29.48113 L 29.48113 -29.48113 L 29.48113 29.48113 L -29.48113 29.48113 z" stroke-linecap="round"/>
</g>
    <g transform="matrix(0.41 0 0 0.41 248.9513066206 339.5261402829)" id="nfgIsJWY6_LiLLZtOaXhV">
<path style="stroke: rgb(140,231,27); stroke-width: 0; stroke-dasharray: none; stroke-linecap: butt; stroke-dashoffset: 0; stroke-linejoin: miter; stroke-miterlimit: 4; fill: rgb(255,102,0); fill-rule: nonzero; opacity: 1;"
      vector-effect="non-scaling-stroke" transform=" translate(0, 0)"
      d="M 0 -29.48113 C 16.27358 -29.48113 29.48113 -16.273580000000003 29.48113 0 C 29.48113 16.27358 16.273580000000003 29.48113 0 29.48113 C -16.27358 29.48113 -29.48113 16.273580000000003 -29.48113 0 C -29.48113 -16.27358 -16.273580000000003 -29.48113 0 -29.48113 z"
      stroke-linecap="round"/>
</g>
</svg>