<?xml version="1.0" encoding="UTF-8" standalone="no"?>
<svg xmlns="http://www.w3.org/2000/svg" xmlns:xlink="http://www.w3.org/1999/xlink" version="1.1"
	width="328.942" height="147.564" viewBox="85.528863 176.218032 328.942 147.564"
	xml:space="preserve">
	<g transform="matrix(1 0 0 1 249.999863 250.000032)" id="p3_kKYtXxCXGPLA2cjD3e">
		<g style="" vector-effect="non-scaling-stroke"   >
			<g transform="matrix(2.08 0 0 1.01 -80.0449588286 -1.1274277159)" id="VOTLA81XsT3GbfxiH_ZFJ">
				<path style="stroke: rgb(175,145,30); stroke-width: 0; stroke-dasharray: none; stroke-linecap: butt; stroke-dashoffset: 0; stroke-linejoin: miter; stroke-miterlimit: 4; fill: rgb(255,255,255); fill-rule: nonzero; opacity: 1;" vector-effect="non-scaling-stroke"  transform=" translate(0, 0)" d="M -28.18489 -28.18489 L 28.184900000000003 -28.18489 L 28.184900000000003 28.184900000000003 L -28.18489 28.184900000000003 z" stroke-linecap="round" />
			</g>
			<g transform="matrix(1 0 0 1 -90.6885 0)" id="swe0irdkgBL2c6yYV04ER">
				<path style="stroke: none; stroke-width: 1; stroke-dasharray: none; stroke-linecap: butt; stroke-dashoffset: 0; stroke-linejoin: miter; stroke-miterlimit: 4; fill: rgb(226,0,26); fill-rule: nonzero; opacity: 1;" vector-effect="non-scaling-stroke"  transform=" translate(-203.3985, -90)" d="M 130.116 16.718 L 130.116 163.28199999999998 L 276.68100000000004 163.28199999999998 L 276.68100000000004 16.718 L 130.116 16.718 z M 178.53500000000003 111.884 C 171.18300000000002 111.884 166.64000000000001 109.23 162.85600000000002 102.71000000000001 L 168.70200000000003 99.21700000000001 C 171.29400000000004 103.83400000000002 174.47200000000004 105.15400000000001 178.50800000000004 105.15400000000001 C 182.35600000000005 105.15400000000001 186.80400000000003 102.51500000000001 186.80400000000003 98.25800000000001 C 186.80400000000003 95.924 186.34500000000003 93.233 180.40400000000002 91.66000000000001 L 177.193 90.72800000000001 C 170.26000000000002 88.77700000000002 163.77100000000002 85.316 163.77100000000002 77.73200000000001 C 163.77100000000002 70.02200000000002 170.65200000000002 64.79700000000001 179.025 64.79700000000001 C 186.124 64.79700000000001 190.51500000000001 68.27000000000001 193.345 72.45400000000001 L 187.5 75.87200000000001 C 185.344 73.00000000000001 182.396 71.56800000000001 179.042 71.56800000000001 C 174.192 71.56800000000001 171.497 73.89900000000002 171.497 77.39500000000001 C 171.497 79.21600000000001 172.121 82.034 177.442 83.525 C 177.442 83.525 180.615 84.44600000000001 180.638 84.459 C 187.06900000000002 86.132 194.49200000000002 88.73 194.49200000000002 97.91900000000001 C 194.48900000000003 105.67500000000001 186.64800000000002 111.88400000000001 178.53500000000003 111.88400000000001 z M 229.18800000000002 72.97 L 209.169 72.97 L 209.169 85.282 L 226.406 85.282 L 226.406 92.255 L 209.169 92.255 L 209.169 110.828 L 201.79600000000002 110.828 L 201.79600000000002 65.856 L 229.18800000000002 65.856 L 229.18800000000002 72.97 z M 260.285 110.824 L 250.26100000000002 92.711 L 242.78000000000003 92.711 L 242.78000000000003 110.824 L 235.40500000000003 110.824 L 235.40500000000003 65.856 L 251.96200000000002 65.856 C 258.62800000000004 65.856 267.516 67.731 267.516 78.91799999999999 C 267.516 86.52799999999999 263.58500000000004 90.047 257.386 91.689 L 269.043 110.826 L 260.28700000000003 110.826 L 260.28700000000003 110.824 z" stroke-linecap="round" />
			</g>
			<g transform="matrix(1 0 0 1 -42.788 -10.7485)" id="FVVt-GVBwR6CmE7f-w_vB">
				<path style="stroke: none; stroke-width: 1; stroke-dasharray: none; stroke-linecap: butt; stroke-dashoffset: 0; stroke-linejoin: miter; stroke-miterlimit: 4; fill: rgb(226,0,26); fill-rule: nonzero; opacity: 1;" vector-effect="non-scaling-stroke"  transform=" translate(-251.299, -79.2515)" d="M 259.816 78.845 C 259.816 76.019 258.549 72.503 251.30199999999996 72.503 L 242.78199999999995 72.503 L 242.78199999999995 86 L 251.04199999999994 86 C 257.7269999999999 85.999 259.8159999999999 83.133 259.8159999999999 78.845 z" stroke-linecap="round" />
			</g>
			<g transform="matrix(1 0 0 1 18.485 -1.671)" id="O1B2yQDM7OU0VgeZQ3ZoM">
				<path style="stroke: none; stroke-width: 1; stroke-dasharray: none; stroke-linecap: butt; stroke-dashoffset: 0; stroke-linejoin: miter; stroke-miterlimit: 4; fill: rgb(0,0,0); fill-rule: nonzero; opacity: 1;" vector-effect="non-scaling-stroke"  transform=" translate(-312.572, -88.329)" d="M 306.422 98.945 L 306.422 110.817 L 292.60400000000004 110.817 L 292.60400000000004 65.841 L 314.62200000000007 65.841 C 321.16400000000004 65.841 332.5400000000001 68.42899999999999 332.5400000000001 82.029 C 332.5400000000001 92.181 325.33400000000006 98.946 314.1590000000001 98.946 L 306.4230000000001 98.946 L 306.42200000000014 98.945 z M 306.422 88.26599999999999 L 311.913 88.26599999999999 C 316.935 88.26599999999999 318.19 85.08399999999999 318.19 82.624 C 318.19 80.435 317.53 76.988 311.913 76.988 L 306.422 76.988 L 306.422 88.266 z" stroke-linecap="round" />
			</g>
			<g transform="matrix(1 0 0 1 103.054 -1.138)" id="XU-OELoN0MwuPJx2CqwXo">
				<path style="stroke: none; stroke-width: 1; stroke-dasharray: none; stroke-linecap: butt; stroke-dashoffset: 0; stroke-linejoin: miter; stroke-miterlimit: 4; fill: rgb(0,0,0); fill-rule: nonzero; opacity: 1;" vector-effect="non-scaling-stroke"  transform=" translate(-397.141, -88.862)" d="M 336.224 65.841 L 336.224 111.883 L 367.37 111.883 L 367.37 100.381 L 349.356 100.381 L 349.356 65.84100000000001 L 336.224 65.84100000000001 z M 402.488 65.841 L 386.914 65.841 L 370.115 110.817 L 384.16200000000003 110.817 L 386.91 102.51899999999999 L 402.17400000000004 102.51899999999999 L 404.61800000000005 110.817 L 419.27600000000007 110.817 L 402.48800000000006 65.841 z M 389.661 91.83099999999999 L 394.701 79.618 L 398.82500000000005 91.83099999999999 L 389.66100000000006 91.83099999999999 z M 411.34 65.841 L 426.91299999999995 65.841 L 434.852 79.61699999999999 L 442.78999999999996 65.841 L 458.058 65.841 L 442.181 93.357 L 442.181 110.81700000000001 L 427.525 110.81700000000001 L 427.525 93.973 L 411.34 65.841 z" stroke-linecap="round" />
			</g>
		</g>
	</g>
</svg>