<svg viewBox="0 0 194.96 33.81" xmlns="http://www.w3.org/2000/svg"><g fill="#fa481c"><path d="m20 5.68c7.7 0 17.19 2.11 17.19 9.79v18.34h-13.59v-7.91s-3.3 1.16-5.83 1.94c-1.7.47-3 1.43-3.09 3.16-.14 1.47 1.52 2.81 1.51 2.81h-13.31a4.48 4.48 0 0 1 -2.88-4.25c.28-6.06 5-8.29 16.62-9.63 6.26-.78 7-1.38 7-2.95 0-1.29-.77-2.76-4.32-2.81-5.11 0-4.75 3.46-4.75 3.45h-13s.09-11.92 18.45-11.94m41.2.32a8.1 8.1 0 0 0 -6.11 4.39v-3.92h-12.66v27.34h13.81v-13.09c0-2.32.66-3.35 1.51-4.18a6.33 6.33 0 0 1 4.46-1.65h3.89v-8.42a9.32 9.32 0 0 0 -4.9-.47m27.56-6h-13.67v6.47h-5.68v8.42h5.68v11.11c0 2.4 0 4.37 1.72 6.25 1.55 1.58 3.57 1.51 6 1.52h6v-18.88h8.19v-8.42h-8.2zm29.85 5.9c22.92.25 19.22 21 19.2 21h-24.45v6.91h-10s-4.1-3.72-4-11.08c.12-17.14 18.53-16.85 19.25-16.83m6 14.1s.57-5.6-6-5.61c-6.31-.04-5.61 5.61-5.61 5.61h11.58"/><path d="m164.09 5.9h-9.4v5.34h-4v7h4v9.2c0 2 0 3.61 1.42 5.17 1.27 1.3 2.94 1.24 4.93 1.25h3.05v-15.67h5.41v-7h-5.41z"/><path d="m141.3 26.9h6.91v6.91h-6.91z"/><path d="m171.08 11.13h9.34l2.64 13.66 2.56-13.66h9.38l-7.35 22.68h-9.18z"/></g></svg>