<svg width="111" height="31" viewBox="0 0 111 31" fill="none" xmlns="http://www.w3.org/2000/svg">
<g clip-path="url(#clip0_3629_17353)">
<path fill-rule="evenodd" clip-rule="evenodd" d="M7.83248 29.7405H0V1.25949H7.35771V4.81951C11.2501 1.8294 14.2877 0.5 17.2784 0.5C19.7944 0.5 22.5947 1.59192 23.8764 4.77204C27.864 1.73428 30.9017 0.5 33.8923 0.5C37.4048 0.5 41.06 2.63614 41.06 9.04432V29.7404H33.2279V11.7976C33.2279 9.42396 32.2309 8.47487 30.7119 8.47487C29.3827 8.47487 27.8639 9.32907 24.4459 11.9874V29.7405H16.6138V11.7976C16.6138 9.42398 15.6168 8.47489 14.0983 8.47489C12.8166 8.47489 11.2501 9.32907 7.83248 12.0349V29.7405ZM56.9615 30.5C60.8064 30.5 64.1292 29.0759 66.6926 25.9904V29.7402H74.145V1.25975H66.6926V5.00956C64.1292 1.92409 60.8064 0.5 56.9615 0.5C49.1771 0.5 42.7213 7.19293 42.7213 15.5C42.7213 23.8071 49.1771 30.5 56.9615 30.5ZM49.7466 15.5C49.7466 10.8481 53.4964 7.098 58.1483 7.098C62.8 7.098 66.5502 10.8481 66.5502 15.5C66.5502 20.1519 62.8 23.9019 58.1483 23.9019C53.4964 23.902 49.7466 20.1519 49.7466 15.5ZM51.6927 15.5C51.6927 19.1074 54.5883 22.0031 58.1483 22.0031C61.7085 22.0031 64.6042 19.1075 64.6042 15.5C64.6042 11.8925 61.7085 8.99688 58.1483 8.99688C54.5883 8.9969 51.6927 11.8925 51.6927 15.5ZM75.5219 29.7408H84.9682C87.199 26.1334 89.7146 22.8579 92.6105 19.7724C95.4586 22.8579 97.8318 26.1334 100.063 29.7408H109.604C106.329 24.7568 102.768 20.0097 98.4962 15.3108C102.721 10.801 106.329 6.14907 109.604 1.25989H100.253C97.9267 4.86735 95.4112 7.90535 92.6105 10.8959C89.7621 7.90535 87.2465 4.86735 84.9683 1.25989H75.5219C78.7497 6.29144 82.4048 10.801 86.6771 15.3108C82.4048 20.0097 78.7497 24.8991 75.5219 29.7408Z" fill="white"/>
</g>
<defs>
<clipPath id="clip0_3629_17353">
<rect width="109.604" height="30" fill="white" transform="translate(0 0.5)"/>
</clipPath>
</defs>
</svg>
