<svg fill="none" height="486" viewBox="0 0 911 486" width="911" xmlns="http://www.w3.org/2000/svg" xmlns:xlink="http://www.w3.org/1999/xlink"><linearGradient id="a"><stop offset="0" stop-color="#f70300" stop-opacity="0"/><stop offset=".32" stop-color="#7e0100" stop-opacity=".61"/><stop offset=".5" stop-color="#310000"/><stop offset="1" stop-color="#f70300" stop-opacity="0"/></linearGradient><linearGradient id="b" gradientUnits="userSpaceOnUse" x1="-10.0814" x2="515.353" xlink:href="#a" y1="137.47" y2="137.47"/><linearGradient id="c" gradientUnits="userSpaceOnUse" x1="22.792" x2="490.843" xlink:href="#a" y1="99.6229" y2="99.6229"/><clipPath id="d"><path d="m0 0h911v486h-911z"/></clipPath><g clip-path="url(#d)"><path d="m569.023 308.079c-13.229 0-27.535 4.28-36.746 8.561-15.58 7.101-25.771 14.397-33.414 22.471-7.251 7.685-12.151 16.051-17.246 25.292h-28.221c-.882 0-1.567.486-1.959 1.167l-3.724 7.102c-.392.68-.294 1.459.098 2.14.392.583 1.078 1.07 1.862 1.07h26.751l-50.171 105.935c-.391.876-.196 1.751.392 2.432l.98 1.07c.49.487 1.176.778 1.96.681l20.48-3.113c.686-.097 1.274-.486 1.568-1.167l55.363-105.838h35.178c.784 0 1.47-.389 1.862-1.07l4.017-7.199c.392-.681.392-1.459-.098-2.14-.392-.681-1.078-1.07-1.861-1.07h-33.415l10.191-20.915h.098c2.352-4.961 4.9-10.117 9.211-14.008 2.254-2.043 4.998-3.696 7.937-4.766 3.92-1.362 8.035-1.946 12.151-1.849 3.527 0 7.055.876 10.485 1.751 3.527.876 6.957 1.849 10.582 1.849 1.764 0 3.528-.39 4.998-1.168 2.841-1.459 4.997-3.988 6.075-6.906.294-.779.49-1.557.49-2.432 0-.876-.196-1.557-.49-2.335-.588-1.167-1.568-2.237-2.744-2.918-1.861-1.07-3.821-1.751-5.879-2.043-2.156-.389-4.507-.584-6.761-.584zm179.417 45.137c-24.791 0-49.288 7.685-67.71 18.969-9.211 5.642-16.952 12.16-22.44 19.164-5.487 7.004-8.72 14.397-8.72 21.887 0 3.308.783 6.615 2.351 9.534 2.45 4.572 6.957 8.56 13.621 11.381 6.663 2.821 15.678 4.475 27.436 4.475 29.985 0 54.874-9.922 77.216-22.569 1.077-.583 1.371-1.945.881-2.918-.196-.292-.49-.584-.784-.778l-4.703-2.918c-.588-.39-1.47-.39-2.156-.098-19.01 9.339-38.411 15.759-57.421 15.759-7.643 0-14.306-1.167-18.716-3.21-1.96-.778-3.625-2.043-4.997-3.502-1.078-1.265-1.568-2.724-1.568-4.377-.098-3.794.588-7.588 1.96-11.187 17.932-.973 42.233-3.405 62.418-8.464 10.387-2.626 19.696-5.933 26.555-10.214 3.43-2.14 6.272-4.572 8.427-7.296 2.058-2.723 3.234-6.031 3.234-9.338 0-1.459-.392-2.919-1.078-4.28-1.176-2.238-3.136-3.892-5.585-5.156-3.626-1.946-8.133-3.113-13.131-3.891-4.899-.584-9.995-.973-15.09-.973zm127.385 0c-24.791 0-49.19 7.685-67.71 18.969-9.211 5.642-16.952 12.16-22.439 19.164-5.488 7.004-8.721 14.397-8.721 21.887 0 3.308.784 6.615 2.351 9.534 2.45 4.572 6.958 8.56 13.621 11.381s15.678 4.475 27.437 4.475c29.984 0 54.873-9.922 77.215-22.569 1.078-.583 1.372-1.945.882-2.918-.196-.292-.392-.584-.686-.778l-4.704-2.918c-.588-.39-1.47-.39-2.156-.098-19.009 9.339-38.411 15.759-57.421 15.759-7.643 0-14.306-1.167-18.716-3.21-1.959-.778-3.625-2.043-4.997-3.502-1.078-1.167-1.568-2.724-1.568-4.377-.098-3.794.588-7.588 1.96-11.187 17.932-.973 42.233-3.405 62.419-8.464 10.386-2.626 19.695-5.933 26.554-10.214 3.43-2.14 6.272-4.572 8.428-7.296 2.057-2.723 3.233-6.031 3.233-9.338 0-1.459-.392-2.919-1.078-4.28-1.176-2.238-3.135-3.892-5.585-5.156-3.626-1.946-8.133-3.113-13.131-3.891-4.899-.584-9.994-.973-15.188-.973zm-274.858 2.043c-4.507 0-9.407 1.167-14.404 2.821-7.545 2.626-15.286 6.517-21.95 10.409-5.389 3.112-10.582 6.517-15.58 10.214-.98.681-1.176 2.14-.392 3.015.196.195.294.292.49.487l4.41 2.918c.686.486 1.665.486 2.351.097 4.018-2.626 8.133-4.864 12.445-6.906 2.548-1.168 5.095-2.14 7.741-3.016 2.156-.681 4.508-1.167 6.859-1.265 1.764 0 2.842.487 3.43.973.392.292.686.778.784 1.265 0 .583-.098 1.167-.294 1.751-.882 2.626-1.96 5.058-3.43 7.296v.097l-26.457 47.277c-.196.292-.392.681-.588 1.07-.294.486-.392 1.07-.392 1.751 0 .389.098.875.294 1.265.294.486.686.972 1.176 1.361.686.487 1.47.876 2.352 1.168 1.372.486 2.94.875 4.409 1.07 1.568.292 3.136.389 4.704.389 3.038 0 5.977-.097 8.231-.292 1.078-.097 2.058-.292 3.038-.486.49-.098.882-.292 1.273-.487.588-.292 1.078-.681 1.372-1.264v-.098l6.076-10.992c5.487-8.658 14.11-21.206 24.203-31.518 4.997-5.156 10.387-9.728 15.874-13.035 5.487-3.21 10.975-5.156 16.168-5.156 3.822 0 8.133.681 12.445.681 2.645.097 5.193-.486 7.545-1.654 2.841-1.362 5.193-3.696 6.761-6.42.588-1.167 1.176-2.335 1.47-3.599.294-1.07.49-2.14.49-3.21.098-2.238-.98-4.378-2.842-5.643-1.274-.875-2.646-1.459-4.213-1.751-1.862-.389-3.724-.583-5.488-.486-5.781 0-11.954 2.043-18.226 5.059-9.407 4.572-18.814 11.576-26.947 18.19-3.625 2.919-6.761 5.837-9.602 8.366l7.055-13.035c.98-1.751 1.763-3.599 2.547-5.35.294-.778.588-1.557.784-2.335.196-.681.294-1.459.294-2.14 0-1.556-.49-3.016-1.372-4.28-.685-.876-1.567-1.654-2.645-2.14-1.666-.876-3.43-1.459-5.292-1.751-2.449-.487-4.703-.584-6.957-.681zm139.732 7.782c4.115 0 7.251.681 9.113 1.751.784.389 1.372.973 1.96 1.654.392.583.49 1.167.49 1.848 0 1.946-.49 3.794-1.47 5.448-1.764 3.015-5.096 5.934-9.701 8.365-6.859 3.697-16.364 6.615-26.751 8.561-9.015 1.751-18.226 2.821-27.437 3.21 1.568-2.335 3.43-4.475 5.39-6.518 6.271-6.517 13.424-12.062 21.263-16.537 8.525-4.475 17.932-7.782 27.143-7.782zm127.483 0c4.116 0 7.251.681 9.113 1.751.784.389 1.372.973 1.96 1.654.392.583.49 1.167.49 1.848 0 1.946-.49 3.794-1.47 5.448-1.764 3.015-5.095 5.934-9.701 8.365-6.859 3.697-16.364 6.615-26.751 8.561-9.015 1.751-18.226 2.821-27.437 3.21 1.568-2.335 3.43-4.475 5.39-6.518 6.271-6.517 13.424-12.062 21.361-16.537 8.427-4.475 17.834-7.782 27.045-7.782z" fill="#c00"/><path d="m862.694 26.8527c-22.831-15.4672-49.582-24.51406-77.313-26.07051-5.389-.291833-65.554-2.52922-108.179 37.54921l-1.96 1.751c-.686-.6809-1.274-1.2646-1.96-1.751-13.424-12.257-29.397-21.5956-46.545-27.7241-36.941-12.84072-77.411-12.84072-114.352 0-17.148 6.1285-33.12 15.4671-46.545 27.7241-13.326 12.0625-23.811 26.8487-31.16 43.2887-7.741 17.8991-11.661 37.0629-11.367 56.5179 0 20.818 3.724 39.593 11.367 56.519 7.251 16.44 17.834 31.032 31.16 43.289 13.425 12.257 29.397 21.595 46.545 27.724 36.941 12.84 77.313 12.84 114.352 0 10.877-3.989 21.362-9.144 31.161-15.467-8.623-7.588-16.364-16.149-23.027-25.293-6.86-9.63-12.641-19.942-17.344-30.739-.98-2.238-1.764-4.183-2.254-5.643-11.171 10.604-26.457 15.954-45.565 15.954-6.173 0-30.278 0-48.014-18.386-5.88-6.323-10.387-13.716-12.935-21.692h127.973c1.96 10.797 4.998 21.109 9.603 31.031 8.231 17.997 20.578 34.145 35.962 46.888 12.347 10.117 26.457 17.996 41.547 23.347 36.942 12.84 77.313 12.84 114.353 0 12.151-4.183 23.517-10.117 34.1-17.51-4.018-2.919-7.937-5.934-11.661-9.339 0 0-19.989-18.191-31.16-43.289-.784-1.653-1.47-3.404-1.47-3.404-.49-1.265-.98-2.432-1.274-3.405-11.17 10.603-26.457 15.759-45.564 15.759-6.174 0-30.279 0-48.015-18.386-5.879-6.323-10.387-13.716-12.934-21.692h186.668c12.445-52.531-4.899-106.617-44.193-137.5513zm-353.543 83.9503c2.744-7.587 6.957-14.6885 12.641-20.6225 11.366-12.257 27.436-18.3855 48.014-18.3855 6.369 0 30.475 0 48.014 18.3855 5.684 5.934 9.897 12.8405 12.641 20.6225zm211.362 0c2.743-7.685 6.957-14.6885 12.64-20.6225 17.54-18.3855 41.841-18.3855 48.015-18.3855 6.173 0 30.474 0 48.014 18.3855 5.683 5.934 9.897 12.8405 12.64 20.6225z" fill="#fff"/><path d="m427.728 233.856c16.364 23.833 39.881 42.024 67.024 52.141l-45.761 47.374c-34.884-16.148-66.142-38.814-91.913-66.927z" fill="#c00"/><path d="m492.593 81.0323c-7.251-16.4399-17.833-31.0316-31.16-43.2886-12.64-11.4788-27.241-20.3311-43.115-26.3623 15.776 6.3231 30.279 15.1753 43.017 26.265 3.528 3.2102 6.957 6.8095 10.191 10.506 8.623 9.8251 15.58 20.9148 21.067 32.8799 7.546 16.9264 11.269 35.7007 11.269 56.5187 0 10.798-.98 21.401-3.234 32.004l-25.477-13.035c-18.323 4.961-37.137 7.393-56.147 7.101.49-1.459.784-2.918 1.274-4.669-2.548 10.019-7.447 18.969-14.404 26.557-11.367 12.257-27.437 18.385-48.015 18.385-20.577 0-36.452-6.128-48.014-18.385-11.367-12.063-17.05-28.016-17.05-47.666v-.487c0-2.918.196-5.447.294-8.171-.686 5.837-1.176 12.549-1.274 18.677v.681c-.784 11.09-7.839 55.74-39.784 86.967.686.68 1.372 1.361 2.058 1.848 13.425 12.257 29.397 21.595 46.545 27.724 36.941 12.841 77.313 12.841 114.352 0 17.148-6.129 33.121-15.467 46.545-27.724 13.327-12.063 23.811-26.849 31.16-43.289 7.644-16.926 11.367-35.604 11.367-56.518.196-19.456-3.625-38.8141-11.465-56.5187z" fill="#c00"/><path d="m492.601 80.9419c-7.251-16.4399-17.834-31.0316-31.16-43.2886-12.151-11.0897-26.457-19.8447-41.744-25.8759-2.449-.9728-4.899-1.94555-7.349-2.82105-17.638-5.83667-36.157-8.852283-54.775-8.755005-19.598-.2918334-39.098 2.918335-57.618 9.630505-17.148 5.93395-33.12 15.46715-46.544 27.72415-.588.4864-1.078 1.0701-1.666 1.5565-3.626-3.4048-7.447-6.5176-11.367-9.436-11.17-8.3659-23.615-14.9808-36.843-19.74737-1.372-.48639-2.842-.97278-4.214-1.36189-26.947-8.949561-56.735-10.70056-84.76-5.35028-8.623 1.65372-17.0501 3.89111-25.3791 6.71217-17.05 6.12847-33.0221 15.46717-46.4466 27.72417-13.3264 12.0624-23.8112 26.8487-31.1604 43.2886-7.74105 17.8991-11.6605961 37.0631-11.36663 56.5181v.876c0 3.502.097988 6.907.391954 10.311 0 .487.097989.973.097989 1.459.097988.779.097988 1.654.195977 2.432 1.37184 14.884 4.89943 28.6 10.68071 41.343 1.2739 2.919 2.6457 5.74 4.1156 8.561 4.2135 8.171 9.3089 15.662 15.2862 22.666 1.5678 1.848 3.1356 3.599 4.7034 5.253.588.583 1.2739 1.264 1.9598 2.042.098.098.098.098.196.195.5879.584 1.2738 1.265 1.9598 1.946.2939.291.5879.583.8819.875.1959.195.2939.292.4899.486.4899.487.9799.876 1.4698 1.362 13.4245 12.257 29.3966 21.596 46.5446 27.725 9.4069 3.307 19.0101 5.642 28.7111 7.295 3.723.584 7.447 1.168 11.17 1.557 16.658 1.751 33.61.973 50.072-2.238 7.056-1.264 14.013-3.112 20.774-5.35.196-.097.49-.194.686-.194.294-.098.588-.195.882-.292.686-.195 1.372-.487 2.058-.681 17.148-6.129 33.12-15.467 46.544-27.724.686-.681 1.274-1.265 1.96-1.751.686.681 1.274 1.264 1.96 1.751 13.424 12.257 29.396 21.595 46.544 27.724 36.942 12.84 77.313 12.84 114.353 0 17.148-6.129 33.12-15.467 46.545-27.724 13.326-12.063 23.811-26.849 31.16-43.289 7.643-16.926 11.367-35.604 11.367-56.518.196-19.553-3.528-38.9115-11.367-56.6161zm-321.795 119.2631c-.783.291-1.665.486-2.449.68-6.664 1.849-14.013 2.724-22.146 2.724-16.952 0-30.67-4.183-41.449-12.451-2.254-1.751-4.409-3.697-6.3692-5.837-6.3692-6.809-10.8767-14.786-13.7184-23.93-.0979-.292-.1959-.584-.1959-.876-.098-.486-.294-.973-.392-1.459-6.1733-23.736-1.1759-53.697 14.6983-69.4564 9.3092-10.7978 24.8892-16.829 41.2532-18.1909 2.058-.0973 4.214-.1946 6.467-.1946 2.352 0 4.704.0973 6.957.2919 12.935 1.07 25.379 5.0584 34.786 11.9652.686.4863 1.274.9727 1.96 1.5564 0 0 .098 0 .098.0973 1.372 1.1673 2.744 2.4319 4.018 3.6965 1.176 1.2646 2.253 2.5293 3.233 3.8911 4.312 5.4476 7.741 11.7705 10.093 18.2885 1.274 3.794 2.254 7.879 2.94 12.062.196 1.459.392 3.016.588 4.572.098.778.196 1.557.196 2.432-.196 2.335-.294 4.767-.294 7.102v.486c0 19.65-5.684 35.409-17.05 47.666-3.724 3.794-7.153 7.199-11.759 9.922-3.625 2.043-7.447 3.697-11.465 4.962zm234.879-14.884c-11.367 12.257-27.437 18.386-48.014 18.386-20.578 0-36.452-6.129-47.819-18.386-11.366-12.062-17.05-28.016-17.05-47.666v-.486c0-3.113.196-6.129.392-8.95.294-2.432.686-4.864 1.078-7.393.294-2.043.784-3.989 1.372-5.934 2.744-9.728 7.447-18.1911 14.11-25.3896.588-.5837 1.078-1.1674 1.666-1.751 5.977-5.6421 13.131-10.0196 20.97-12.6461.686-.2919 1.371-.4864 2.057-.681 6.958-2.1401 14.797-3.2102 23.322-3.3074 8.035.1945 30.67.9727 47.622 18.3855 16.364 16.7316 16.854 38.5216 17.05 47.8606.098 6.226-.588 12.938-1.862 19.358-2.547 11.09-7.545 20.623-14.894 28.6z" fill="url(#b)" opacity=".3"/><path d="m492.294 80.8387c-5.389-11.8679-12.346-22.8603-20.969-32.8799-3.234-3.6966-6.664-7.1986-10.191-10.506-14.306-12.5489-30.769-22.1794-48.798-28.50243-17.638-5.83667-36.158-8.8522842-54.776-8.755006-19.598-.2918339-39.097 2.918336-57.617 9.630506-17.148 5.93393-33.12 15.46713-46.545 27.72413-13.326 12.2571-23.811 26.8487-31.16 43.2887-7.153 17.8991-10.877 37.0633-11.367 56.2263v.487c0 19.65-5.683 35.409-17.05 47.666-3.724 3.891-7.153 7.296-11.857 10.117l-.686.389c-9.602 5.447-21.263 7.879-34.981 7.879-20.578 0-36.452-6.128-48.0149-18.385-2.2537-2.432-4.2135-4.961-5.9773-7.685l-78.2928 21.401c5.1934 10.798 11.8566 20.623 19.9896 29.475 1.2739 1.459 4.4095 4.864 8.623 8.658 13.6204 12.062 29.3966 21.401 46.5446 27.724 12.9348 4.669 26.4568 7.588 40.0778 9.047 16.658 1.751 33.61.973 50.072-2.237 12.15-2.238 23.811-5.934 35.178-10.993 5.977-2.724 10.386-5.156 11.66-5.934 9.113-5.35 17.54-11.479 25.183-18.483 33.218-31.226 40.176-76.46 40.568-87.939v-.681c.196-9.047.979-17.899 2.547-26.751 1.666-9.825 5.684-18.969 11.661-27.0434 6.859-8.5604 16.07-15.1753 26.457-18.6773 7.937-2.9183 16.56-4.183 24.987-3.9884 7.643.1946 30.768.6809 48.014 18.3855 16.364 16.7316 16.854 38.5216 17.05 47.8606.196 8.852-1.175 18.58-3.723 26.946 19.01.292 37.823-2.14 56.147-7.101l25.477 13.035c2.254-10.506 3.43-22.277 3.43-33.074 0-19.261-3.724-38.4252-11.661-56.3243z" fill="#c00"/><path d="m251.84 39.2085c-25.477 23.3467-38.705 57.1021-40.567 91.1495-.784-6.129-1.274-12.549-3.43-18.386-2.156-6.42-5.487-12.3539-9.309-17.8988-19.695-28.8915-77.411-30.5452-99.8501-4.4747-20.6756 20.3315-22.4394 63.9115-6.5652 87.9395l-77.9989 21.498c-25.869-50.876-15.48221-122.4728 28.7106-161.2866 56.3435-50.3899 153.5486-50.1954 209.0096 1.4591z" fill="#c00"/><path d="m251.84 39.2085c-25.477 23.3467-38.705 57.1021-40.567 91.1495-.784-6.129-1.274-12.549-3.43-18.386-2.352-6.906-5.977-13.6185-10.485-19.3579-20.087-27.5297-76.823-28.5997-98.6741-3.0156-20.4796 20.2335-22.9293 64.2035-6.5652 87.9395-.098.097-77.9009 21.401-77.9989 21.498-25.869-50.876-15.48221-122.4728 28.7106-161.2866 56.3435-50.3899 153.5486-50.1954 209.0096 1.4591z" fill="url(#c)" opacity=".3"/><g fill="#fff"><path d="m319.734 378.41v-60.118h12.64v22.569h.392c.588-1.168 1.372-2.432 2.45-3.697 1.078-1.264 2.45-2.335 4.115-3.21 1.666-.876 3.822-1.265 6.37-1.265 3.331 0 6.369.876 9.211 2.53 2.841 1.751 4.997 4.28 6.761 7.685 1.666 3.404 2.547 7.782 2.547 12.937 0 5.059-.783 9.242-2.449 12.744s-3.822 6.031-6.663 7.879c-2.744 1.751-5.88 2.627-9.407 2.627-2.45 0-4.508-.389-6.272-1.167-1.665-.779-3.135-1.849-4.213-3.016-1.078-1.265-1.96-2.432-2.45-3.697h-.588v7.199zm12.346-22.471c0 2.724.392 5.058 1.078 7.004.784 2.043 1.862 3.502 3.234 4.669 1.372 1.07 3.135 1.654 5.193 1.654s3.822-.584 5.194-1.654c1.371-1.167 2.547-2.724 3.233-4.669.784-2.043 1.078-4.28 1.078-6.907 0-2.626-.392-4.864-1.078-6.907-.686-1.945-1.764-3.502-3.233-4.669-1.372-1.07-3.136-1.654-5.194-1.654s-3.821.584-5.193 1.654-2.45 2.626-3.234 4.572c-.686 1.848-1.078 4.183-1.078 6.907z"/><path d="m378.729 395.239c-1.568 0-3.136-.098-4.507-.389-1.372-.292-2.548-.584-3.43-.876l2.842-9.339c2.253.681 4.115.876 5.683.584s2.744-1.459 3.626-3.502l.784-1.945-16.267-46.402h13.229l9.407 33.074h.49l9.505-33.074 13.326.097-17.638 49.904c-.882 2.432-1.96 4.475-3.429 6.323-1.47 1.751-3.234 3.21-5.488 4.183-2.352.875-4.997 1.362-8.133 1.362z"/></g></g></svg>