<svg height="480.135572" viewBox="9.50235441 9.42465822 480.13557233 480.13557233" width="480.135572" xmlns="http://www.w3.org/2000/svg"><path d="m-35.21127-35.21127h70.42254v70.42254h-70.42254z" fill="#00000000" transform="matrix(6.81792466 0 0 6.81792466 249.570141 249.492444)"/><path d="m98.67 99.24c.56572085-.60865851 1.34964015-.96825451 2.18-1 1.06286404-.12881728 2.12567826.24021544 2.88 1 .57919374.73316381.88345671 1.6459527.86 2.58h-6.9c.03778639-.95015514.38945848-1.86098584 1-2.59z" fill="#00000000" transform="matrix(3.04843198327 0 0 3.04843176431 59.10913246549 114.03547907909)"/><path d="m81.84 98.43c1.0924709-.20885348 2.217229.13982153 3 .93.83356382.94623124 1.30169194 2.15910864 1.32 3.42.04469452.90609266-.0055794 1.81437496-.15 2.71-.11260244.96274268-.51344875 1.86900391-1.15 2.6-.64399134.60692148-1.50589392.92788102-2.39.89-.82674052.05479044-1.63661103-.25164705-2.22-.84-.68301177-.8283102-1.07634367-1.85729454-1.12-2.93-.11998699-1.05994849-.11998699-2.13005151 0-3.19.08030279-.94389832.42709701-1.8455633 1-2.6.43407822-.51977205 1.03479876-.87313708 1.7-1z" fill="#00000000" transform="matrix(3.04843198327 0 0 3.04843176431 59.10913344759 112.47141929776)"/><path d="m14.39 99c1.12162353-.22188088 2.28411663.0596033 3.18.77.78044795.72363401 1.28582136 1.69550595 1.43 2.75.17039963 1.15692403.13655348 2.33477003-.1 3.48-.15775333 1.03798559-.68727047 1.98329807-1.49 2.66-.96548512.64913368-2.15911362.86318863-3.29.59-.91667262-.19633096-1.70812905-.76995534-2.18-1.58-.60910229-1.19459759-.88216313-2.53225003-.79-3.87-.01704599-1.20468029.30523617-2.38984694.93-3.42.53808531-.76824848 1.3784908-1.27030891 2.31-1.38z" fill="#00000000" transform="matrix(3.04843198327 0 0 3.04843176431 59.10913250658 114.03547879717)"/><path d="m44 104.91c1.28274123-.51031787 2.62801992-.84663754 4-1v4c-1.1177155 1.10519007-2.60924942 1.75104566-4.18 1.81-.53684955.00962889-1.05270915-.20833996-1.42-.6-.68156865-.80766447-.78165485-1.95665404-.25-2.87.45841608-.63209584 1.10648641-1.10150894 1.85-1.34z" fill="#00000000" transform="matrix(3.04843198327 0 0 3.04843176431 59.10913182198 114.03547721248)"/><g fill="#fff"><path d="m106.3 89h4.49v.78h-1.79v4.9h-1c0-1.63 0-3.26 0-4.9h-1.7z" transform="matrix(3.04843198327 0 0 3.04843176431 59.10913289712 114.03547719147)"/><path d="m111.91 89h1.47c.56 1.42 1.12 2.84 1.67 4.27.55-1.42 1.1-2.84 1.64-4.27h1.46v5.69h-1c0-1.56 0-3.11 0-4.67-.63 1.55-1.22 3.11-1.84 4.67h-.62c-.61-1.55-1.19-3.11-1.84-4.65v4.65h-1v-5.69z" transform="matrix(3.04843198327 0 0 3.04843176431 59.10913236471 114.03547834309)"/><path d="m14.57 95.1c1.98868371-.14591882 3.9685254.38250868 5.62 1.5 1.39603952 1.00581832 2.41658892 2.44866401 2.9 4.1.50574492 1.75351917.62515634 3.59586686.35 5.4-.21556958 1.56363137-.8515109 3.03942997-1.84 4.27-1.14336904 1.35451646-2.71200578 2.2815984-4.45 2.63-1.86500858.39491077-3.8048404.23499632-5.58-.46-1.46971313-.60123376-2.71209139-1.65113088-3.55-3-.97710072-1.67763931-1.45256353-3.60031376-1.37-5.54-.06675612-2.06047046.53293898-4.08751004 1.71-5.78 1.48050578-1.94304659 3.76763724-3.10318574 6.21-3.15zm-.18 3.9c-.93660956.11688003-1.77790793.63039982-2.31 1.41-.62476383 1.03015306-.94704599 2.21531971-.93 3.42-.09216313 1.33774997.18089771 2.67540241.79 3.87.47187095.81004466 1.26332738 1.38366904 2.18 1.58 1.13088638.27318863 2.32451488.05913368 3.29-.59.80906112-.68416301 1.33918499-1.64123227 1.49-2.69.22113013-1.15140693.23805454-2.33273082.05-3.49-.12627971-1.05500242-.61389055-2.03375752-1.38-2.77-.90077269-.69984848-2.06278823-.97025462-3.18-.74z" transform="matrix(3.04843198327 0 0 3.04843176431 59.10913477014 114.03547869266)"/><path d="m30.93 97.52c1.29937843-1.56824447 3.2666799-2.42569096 5.3-2.31v4.25c-1.28655643-.06552642-2.57218789.14590369-3.77.62-.54528393.24090494-.97806591.68084034-1.21 1.23v11.39h-4.6v-17.16h4.29v2z" transform="matrix(3.04843198327 0 0 3.04843176431 59.10913338573 114.03547850905)"/><path d="m42.18 95.67c1.76454825-.52179736 3.62421276-.63802639 5.44-.34 1.57732932.15247886 3.03341268.91279825 4.06 2.12.68785539.97365678.99716613 2.16468092.87 3.35v11.9h-4l-.39-1.48c-1.17606005.77712049-2.50069659 1.30152673-3.89 1.54-1.39711038.30200704-2.8525669.18013867-4.18-.35-1.14852268-.52378556-2.01829057-1.51364691-2.39-2.72-.49677373-1.46794009-.33641636-3.07880281.44-4.42.78464249-1.11890271 1.88473071-1.97878179 3.16-2.47 2.2078087-.84875488 4.5236573-1.38395826 6.88-1.59.1281885-.71850047-.00293585-1.45917584-.37-2.09-.79586367-.69826976-1.87293879-.98326902-2.91-.77-1.39806862.13649763-2.6800611.83707944-3.55 1.94-1-.58-2.05-1.16-3.06-1.76.953419-1.3487658 2.31826719-2.35222745 3.89-2.86zm1.82 9.24c-.73851937.26448082-1.37286312.75863811-1.81 1.41-.53165485.91334596-.43156865 2.06233553.25 2.87.36729085.39166004.88315045.60962889 1.42.6 1.57498865-.04861743 3.0741471-.68754449 4.2-1.79 0-1.34 0-2.68 0-4-1.37198008.15336246-2.71725877.48968213-4 1z" transform="matrix(3.04843198327 0 0 3.04843176431 59.10913241526 114.03547840525)"/><path d="m64.58 95.31c1.44810124-.32111852 2.95996604-.18843754 4.33.38.98324765.4866991 1.73442628 1.34210825 2.09 2.38.2661613.77585865.40462834 1.58977465.41 2.41v12.2h-4.49c0-3.83 0-7.65 0-11.47.06034486-.78523604-.15540744-1.56689601-.61-2.21-.55131148-.47151177-1.28884513-.66327052-2-.52-1.37901177.2561718-2.65593287.90157214-3.68 1.86v12.3h-4.54c0-5.56 0-11.12 0-16.68l3.76-.52c.12.67.27 1.34.4 2 1.27203392-1.02608543 2.74816051-1.76926233 4.33-2.18z" transform="matrix(3.04843198327 0 0 3.04843176431 59.10913252112 114.03547734105)"/><path d="m76.33 97.8c1.0627502-1.48932067 2.71876756-2.44499589 4.54-2.62 1.17136175-.09766594 2.34978638.0662888 3.45.48.8579892.30894445 1.57071079.92544862 2 1.73.11-.64.24-1.26.33-1.9h3.83v17c.07102145 1.70791364-.49169512 3.38181734-1.58 4.7-1.40250518 1.28679259-3.21785753 2.0313707-5.12 2.1-2.15930593.31144443-4.36232537-.0371346-6.32-1-1.25923545-.6576187-2.16071733-1.84127175-2.46-3.23l4.46-.72c.08733735.45480799.34033414.86102819.71 1.14.82759436.44032023 1.76736476.62479368 2.7.53.89799057.04560003 1.77454781-.28401447 2.42-.91.58857637-.78771487.87909067-1.75845777.82-2.74 0-.72 0-1.44 0-2.16-.41756278.76324823-1.02343584 1.40698836-1.76 1.87-1.12998642.55802804-2.40469533.75359982-3.65.56-1.71495837-.16634908-3.29040058-1.01715998-4.37-2.36-1.2383678-1.72366582-1.87129169-3.80879842-1.8-5.93-.12148848-2.32000233.51753308-4.61626661 1.82-6.54zm5.51.63c-.66520124.12686292-1.26592178.48022795-1.7 1-.57290299.7544367-.91969721 1.65610168-1 2.6-.11998699 1.05994849-.11998699 2.13005151 0 3.19.04365633 1.07270546.43698823 2.1016898 1.12 2.93.58338897.58835295 1.39325948.89479044 2.22.84.88410608.03788102 1.74600866-.28307852 2.39-.89.63655125-.73099609 1.03739756-1.63725732 1.15-2.6.1444206-.89562504.19469452-1.80390734.15-2.71-.01830806-1.26089136-.48643618-2.47376876-1.32-3.42-.782771-.79017847-1.9075291-1.13885348-3-.93z" transform="matrix(3.04843198327 0 0 3.04843176431 59.10913213856 114.0354783196)"/><path d="m95.14 97.67c1.19301793-1.37879618 2.86650549-2.25129824 4.68-2.44 2.02395441-.30868258 4.09253792.08667809 5.86 1.12 1.3883825.92809102 2.39921311 2.32197323 2.85 3.93.42890632 1.45889176.58152367 2.98506524.45 4.5h-11.36c-.04992901 1.16614356.22716737 2.32302091.8 3.34.53082689.79241672 1.37510578 1.32009102 2.32 1.45.97193379.17549914 1.97435661.04626693 2.87-.37.76680596-.42077866 1.41380847-1.02992465 1.88-1.77l3.32 1.85c-1.07080706 1.78601623-2.8472076 3.03567223-4.89 3.44-2.05271401.49616556-4.20629996.37439576-6.19-.35-1.53569413-.61979238-2.78895386-1.7840422-3.52-3.27-.86843245-1.91220317-1.21352474-4.0207171-1-6.11.07793586-1.93188092.75604625-3.79144139 1.94-5.32zm3.53 1.57c-.61054152.72901416-.96221361 1.63984486-1 2.59h6.9c.02345671-.9340473-.28080626-1.84683619-.86-2.58-.75432174-.75978456-1.81713596-1.12881728-2.88-1-.83035985.03174549-1.61427915.39134149-2.18 1z" transform="matrix(3.04843198327 0 0 3.04843176431 59.10913277076 114.03547731647)"/><path d="m-20.40816-20.40816h40.81633v40.81633h-40.81633z" transform="matrix(5.38 0 0 1.38598962 249.4993951 341.66175207005)"/><path d="m-29.48113-29.48113h58.96226v58.96226h-58.96226z" transform="matrix(5.74578962 0 0 3.51314286 249.317289 233.446292)"/></g><path d="m-29.48113-29.48113h58.96226v58.96226h-58.96226z" fill="#f60" transform="matrix(4.92869037 0 0 2.7098613 249.030863 233.486477)"/><path d="m0-29.48113c16.27358 0 29.48113 13.20755 29.48113 29.48113s-13.20755 29.48113-29.48113 29.48113-29.48113-13.20755-29.48113-29.48113 13.20755-29.48113 29.48113-29.48113z" fill="#f60" transform="matrix(.41 0 0 .41 248.951307 339.52614)"/></svg>