<svg height="147.564" viewBox="85.528863 176.218032 328.942 147.564" width="328.942" xmlns="http://www.w3.org/2000/svg"><path d="m-28.18489-28.18489h56.36979v56.36979h-56.36979z" fill="#fff" transform="matrix(2.08 0 0 1.01 169.954904 248.872604)"/><path d="m130.116 16.718v146.564h146.565v-146.564zm48.419 95.166c-7.352 0-11.895-2.654-15.679-9.174l5.846-3.493c2.592 4.617 5.77 5.937 9.806 5.937 3.848 0 8.296-2.639 8.296-6.896 0-2.334-.459-5.025-6.4-6.598l-3.211-.932c-6.933-1.951-13.422-5.412-13.422-12.996 0-7.71 6.881-12.935 15.254-12.935 7.099 0 11.49 3.473 14.32 7.657l-5.845 3.418c-2.156-2.872-5.104-4.304-8.458-4.304-4.85 0-7.545 2.331-7.545 5.827 0 1.821.624 4.639 5.945 6.13 0 0 3.173.921 3.196.934 6.431 1.673 13.854 4.271 13.854 13.46-.003 7.756-7.844 13.965-15.957 13.965zm50.653-38.914h-20.019v12.312h17.237v6.973h-17.237v18.573h-7.373v-44.972h27.392zm31.097 37.854-10.024-18.113h-7.481v18.113h-7.375v-44.968h16.557c6.666 0 15.554 1.875 15.554 13.062 0 7.61-3.931 11.129-10.13 12.771l11.657 19.137h-8.756v-.002z" fill="#e2001a" transform="translate(-44.087137 160.000032)"/><path d="m259.816 78.845c0-2.826-1.267-6.342-8.514-6.342h-8.52v13.497h8.26c6.685-.001 8.774-2.867 8.774-7.155z" fill="#e2001a" transform="translate(-44.087137 160.000032)"/><g fill="#000"><path d="m306.422 98.945v11.872h-13.818v-44.976h22.018c6.542 0 17.918 2.588 17.918 16.188 0 10.152-7.206 16.917-18.381 16.917h-7.736zm0-10.679h5.491c5.022 0 6.277-3.182 6.277-5.642 0-2.189-.66-5.636-6.277-5.636h-5.491z" transform="translate(-44.087137 160.000032)"/><path d="m336.224 65.841v46.042h31.146v-11.502h-18.014v-34.54zm66.264 0h-15.574l-16.799 44.976h14.047l2.748-8.298h15.264l2.444 8.298h14.658zm-12.827 25.99 5.04-12.213 4.124 12.213zm21.679-25.99h15.573l7.939 13.776 7.938-13.776h15.268l-15.877 27.516v17.46h-14.656v-16.844z" transform="translate(-44.087137 160.000032)"/></g></svg>