<svg height="800" viewBox="-41.8008 -9.08425 362.2736 54.5055" width="1200" xmlns="http://www.w3.org/2000/svg"><path d="m238.077 14.382v21.912h7.027v-14.589h25.575v14.589h7.022v-21.874zm6.244-7.088h27.02c3.753-.746 6.544-4.058 7.331-7.262h-41.681c.779 3.205 3.611 6.516 7.33 7.262m-27.526 29.014c3.543-1.502 5.449-4.1 6.179-7.14h-31.517l.02-29.118-7.065.02v36.238zm-84.921-29.112h24.954c3.762-1.093 6.921-3.959 7.691-7.136h-39.64v21.415h32.444v7.515l-25.449.02c-3.988 1.112-7.37 3.79-9.057 7.327l2.062-.038h39.415v-21.944h-32.42zm-61.603.069h27.011c3.758-.749 6.551-4.058 7.334-7.265h-41.679c.778 3.207 3.612 6.516 7.334 7.265m0 14.322h27.011c3.758-.741 6.551-4.053 7.334-7.262h-41.679c.778 3.21 3.612 6.521 7.334 7.262m0 14.717h27.011c3.758-.747 6.551-4.058 7.334-7.263h-41.679c.778 3.206 3.612 6.516 7.334 7.263m-70.271-36.216c.812 3.167 3.554 6.404 7.316 7.215h11.37l.58.229v28.691h7.1v-28.691l.645-.229h11.38c3.804-.98 6.487-4.048 7.285-7.215v-.07h-45.676v.07" fill="#e82127"/></svg>