<svg height="114.301" viewBox="409.289 277.787 512 114.301" width="512" xmlns="http://www.w3.org/2000/svg"><g preserveAspectRatio="xMidYMid meet" transform="matrix(5.715038 0 0 5.715038 409.288757 277.787231)" viewBox="0 0 90 20"><g><path d="m27.9727 3.12324c-.3292-1.23001-1.2959-2.196617-2.5259-2.525874-2.2271-.59736578-11.1618-.597366-11.1618-.597366s-8.93458.00000022-11.16177.597366c-1.23.329257-2.196607 1.295864-2.525864 2.525874-.59736578 2.22718-.597366 6.87676-.597366 6.87676s.00000022 4.6496.597366 6.8768c.329257 1.23 1.295864 2.1966 2.525864 2.5258 2.22719.5974 11.16177.5974 11.16177.5974s8.9347 0 11.1618-.5974c1.23-.3292 2.1967-1.2958 2.5259-2.5258.5974-2.2272.5974-6.8768.5974-6.8768s-.0024-4.64958-.5974-6.87676z" fill="#f00"/><path d="m11.4253 14.2854 7.4224-4.285-7.4224-4.28507z" fill="#fff"/></g><g fill="#282828"><path d="m34.6024 13.0036-3.2079-11.58514h2.7987l1.1242 5.25164c.2869 1.29351.4962 2.39652.6326 3.30903h.0823c.0941-.65381.3058-1.74976.6327-3.29021l1.1641-5.27046h2.7987l-3.2479 11.58514v5.5574h-2.7798v-5.5574z"/><path d="m41.4697 18.1937c-.5644-.381-.9666-.9737-1.2065-1.778-.2375-.8043-.3574-1.872-.3574-3.2079v-1.818c0-1.3476.1364-2.43175.4092-3.24784.2728-.81608.6985-1.41345 1.277-1.78739.5786-.37394 1.3382-.56209 2.279-.56209.9266 0 1.6674.1905 2.2271.5715.5574.38099.9666.97836 1.2253 1.78739.2587.81138.3881 1.89083.3881 3.23843v1.818c0 1.3359-.127 2.4083-.3786 3.2173-.2517.8114-.6609 1.4041-1.2254 1.778-.5644.374-1.3311.5621-2.2977.5621-.9972.0023-1.7756-.1905-2.3401-.5715zm3.1656-1.9614c.1552-.4092.2352-1.0748.2352-2.0014v-3.9017c0-.89843-.0776-1.55695-.2352-1.97087-.1576-.41627-.4327-.62323-.8279-.62323-.3809 0-.6514.20696-.8066.62323-.1576.41628-.2352 1.07244-.2352 1.97087v3.9017c0 .9266.0752 1.5945.2258 2.0014.1505.4092.4209.6138.816.6138.3952 0 .6703-.2046.8279-.6138z"/><path d="m56.8154 18.5634h-2.206l-.2446-1.5334h-.0611c-.5998 1.1571-1.4982 1.7356-2.6976 1.7356-.8302 0-1.444-.2728-1.8391-.816-.3951-.5457-.5927-1.397-.5927-2.5541v-9.35799h2.8199v9.19329c0 .5598.0611.9572.1834 1.1948.1223.2375.3269.3574.6138.3574.2446 0 .4798-.0752.7056-.2257.2258-.1506.3904-.3411.5009-.5715v-9.95064h2.8175z"/><path d="m64.4755 3.68758h-2.7987v14.87532h-2.7587v-14.87532h-2.7987v-2.26717h8.3561z"/><path d="m71.2768 18.5634h-2.206l-.2446-1.5334h-.0611c-.5997 1.1571-1.4981 1.7356-2.6976 1.7356-.8302 0-1.444-.2728-1.8391-.816-.3951-.5457-.5927-1.397-.5927-2.5541v-9.35799h2.8199v9.19329c0 .5598.0611.9572.1834 1.1948.1223.2375.3269.3574.6139.3574.2445 0 .4797-.0752.7055-.2257.2258-.1506.3904-.3411.5009-.5715v-9.95064h2.8175z"/><path d="m80.609 8.0387c-.1717-.79021-.4469-1.36171-.8278-1.71684-.381-.35512-.9055-.53151-1.5734-.53151-.5174 0-1.0019.14581-1.4511.43979s-.7973.67733-1.0419 1.15475h-.0211v-6.599245h-2.7164v17.775155h2.3283l.2869-1.1853h.0612c.2187.4233.5456.7549.9807 1.0019.4351.2446.9196.3669 1.4511.3669.9525 0 1.6557-.4398 2.1049-1.3171.4492-.8796.6749-2.2507.6749-4.118v-1.9826c0-1.39938-.087-2.49768-.2563-3.2879zm-2.5847 5.1105c0 .9125-.0376 1.6275-.1129 2.1449-.0752.5174-.1999.8867-.3786 1.103-.1764.2187-.4163.3269-.715.3269-.2328 0-.4468-.0541-.6444-.1646-.1975-.1082-.3574-.2728-.4797-.4892v-7.10958c.094-.34102.2587-.61853.4915-.83725.2305-.21872.4845-.32691.7549-.32691.287 0 .508.11289.6633.33632.1575.22577.2657.60207.3269 1.13358.0611.53151.0917 1.28644.0917 2.26714v1.6157z"/><path d="m84.8657 13.8712c0 .8043.0235 1.4064.0706 1.8086.047.4021.1458.6938.2963.8796.1505.1834.381.2751.6938.2751.421 0 .7126-.1646.8678-.4915.1576-.3269.2423-.8725.2564-1.6345l2.4318.1434c.0141.1082.0211.2587.0211.4492 0 1.1571-.3175 2.0226-.9501 2.5941s-1.5287.8584-2.6858.8584c-1.3899 0-2.3636-.4351-2.921-1.3076-.5597-.8725-.8372-2.2201-.8372-4.0452v-2.1872c0-1.87908.2893-3.25255.8678-4.11802.5786-.86548 1.5687-1.29822 2.9727-1.29822.9666 0 1.7098.17639 2.2272.53152.5174.35512.8819.90545 1.0936 1.65569.2117.75023.3175 1.78504.3175 3.10673v2.1449h-4.7225zm.3575-5.90309c-.1435.17638-.2375.46566-.2869.86782-.0471.40217-.0706 1.01129-.0706 1.82977v.8984h2.0626v-.8984c0-.80437-.0282-1.41349-.0823-1.82977-.0541-.41627-.1529-.7079-.2964-.87958-.1434-.16933-.3645-.25635-.6632-.25635-.301.00235-.5221.09172-.6632.26811z"/></g></g></svg>